<?xml version="1.0" standalone="no"?><!DOCTYPE svg PUBLIC "-//W3C//DTD SVG 1.1//EN" "http://www.w3.org/Graphics/SVG/1.1/DTD/svg11.dtd"><svg t="1566954468633" class="icon" viewBox="0 0 1024 1024" version="1.1" xmlns="http://www.w3.org/2000/svg" p-id="1025" xmlns:xlink="http://www.w3.org/1999/xlink" width="64" height="64"><defs><style type="text/css"></style></defs><path d="M855.125 455.92578125c-3.1640625-0.26367188-6.59179688-0.52734375-10.1953125-0.96679688-31.55273438-3.69140625-39.19921875-15.73242188-39.19921875-15.73242187s-33.3984375 15.29296875-53.17382813 0.43945313c-3.77929688-2.90039063-6.85546875-6.06445313-9.31640625-9.40429688 3.33984375 0.08789063 6.6796875-0.26367188 9.93164063-0.703125 6.06445313-0.87890625 12.04101563-2.54882813 17.75390625-4.83398438 2.4609375-0.96679688 2.02148438-1.31835938 3.69140625 0.43945313 9.40429688 9.84375 25.83984375 12.3046875 38.58398438 13.62304688 13.18359375 1.40625 27.33398438 2.19726563 40.34179687-0.70312501 0.79101563 6.06445313 1.23046875 11.953125 1.58203125 17.84179688zM730.671875 234.265625c0.703125 2.8125 1.49414063 5.2734375 2.19726563 7.47070313-4.04296875 0.43945313-8.4375-3.69140625-11.95312501-17.49023438-3.69140625-14.50195313 23.90625-8.7890625 23.90625001 0.703125-7.99804688-1.84570313-16.43554688 0.26367188-14.15039063 9.31640625zM800.45703125 332.703125c-14.85351563-1.0546875-35.33203125 6.50390625-36.82617188 15.1171875-0.52734375 3.07617188 0 6.76757813 1.40625 10.37109375-7.03125-5.18554688-12.56835938-15.55664063-11.16210937-23.29101563 1.23046875-6.76757813 11.6015625-10.10742188 17.2265625-11.60156249 7.3828125-2.02148438 17.578125-3.515625 24.52148437 0.70312499 3.42773438 2.19726563 4.83398438 5.36132813 4.83398438 8.70117188z" fill="#FFFFFF" p-id="1026"></path><path d="M890.72070313 454.51953125c-35.15625 33.66210938-76.37695313 16.08398438-76.37695313 16.08398438s-33.046875 21.53320313-65.12695313 7.64648437c-35.59570313-15.46875-30.9375-59.32617188-30.93749999-59.32617188s-68.11523438 16.171875-104.94140626-46.0546875c-37.88085938-63.984375 8.26171875-111.09375 8.26171875-111.09374999s-26.10351563 1.31835938-41.1328125-48.33984375c-5.88867188-19.42382813-1.49414063-40.51757813 6.15234375-59.15039063 0.08789063 1.14257813 4.83398438 53.26171875 30.5859375 74.1796875 26.10351563 21.18164063 44.47265625 24.69726563 44.47265625 24.69726563s-28.828125 58.27148438-0.3515625 97.64648437c31.20117188 43.06640625 72.24609375 42.1875 72.24609375 42.1875s-4.30664063 29.1796875 18.80859375 46.49414063c19.6875 14.85351563 53.17382813-0.43945313 53.17382813-0.43945313s7.55859375 12.04101563 39.19921875 15.73242188c30.84960938 3.77929688 45.96679688-0.26367188 45.96679687-0.26367188z" fill="#DEB985" p-id="1027"></path><path d="M890.72070313 454.51953125c2.8125 24.52148438 2.8125 49.21875 0.26367187 73.65234375-5.2734375-5.18554688-10.63476563-9.05273438-15.46875-11.33789063-7.64648438-3.69140625-15.20507813-2.72460938-22.67578125 1.23046876-11.16210938 5.80078125-22.06054688 18.19335938-32.60742188 31.64062499-15.73242188 19.77539063-30.67382813 41.8359375-44.73632812 48.25195313-29.97070313 13.7109375-48.1640625-34.54101563-106.96289063-0.52734375-58.79882813 33.92578125-130.69335938 80.94726563-167.78320312 30.84960938-37.08984375-50.18554688-26.3671875-217.70507813-128.14453125-215.24414063-101.86523438 2.37304688-41.04492188 160.13671875-133.33007813 179.38476563-37.79296875 7.91015625-70.22460938-23.5546875-95.27343749-63.36914063 10.8984375-130.86914063 95.80078125-255.67382813 231.24023437-317.63671875 67.06054688-30.67382813 137.72460938-41.92382813 204.87304688-36.03515625-2.8125 12.65625-3.25195313 25.75195313 0.52734374 38.14453125 15.1171875 49.65820313 41.1328125 48.33984375 41.1328125 48.33984375s-46.14257813 47.109375-8.26171875 111.09375c36.82617188 62.2265625 104.94140625 46.0546875 104.94140626 46.0546875s-4.74609375 43.85742188 30.9375 59.32617188c32.16796875 13.88671875 65.12695313-7.64648438 65.12695312-7.64648438s41.04492188 17.578125 76.20117188-16.171875z" fill="#CC9E79" p-id="1028"></path><path d="M363.11328125 188.38671875C226.97070312 250.61328125 141.89257812 376.56054687 131.87304687 508.22070312c-4.21875 55.63476563 4.921875 112.32421875 29.35546876 165.67382813 3.8671875 8.4375 7.99804688 16.69921875 12.48046875 24.609375-0.17578125-0.43945313-0.3515625-0.79101563-0.61523438-1.23046875-24.78515625-54.140625-33.83789063-111.70898438-29.1796875-168.22265625 10.8984375-130.86914063 95.80078125-255.67382813 231.24023438-317.63671875 67.06054688-30.67382813 137.72460938-41.92382813 204.87304687-36.03515625 1.58203125-7.20703125 3.95507813-14.23828125 6.6796875-21.00585938-72.59765625-9.84375-150.29296875 0.43945313-223.59375 34.01367188z" fill="#F2C186" p-id="1029"></path><path d="M890.984375 528.25976563c-13.27148438 128.23242188-97.55859375 249.609375-230.44921875 310.42968749-184.5703125 84.46289063-396.29882813 21.4453125-486.9140625-140.09765624-0.17578125-0.43945313-0.3515625-0.79101563-0.61523438-1.23046876-24.78515625-54.140625-33.83789063-111.70898438-29.17968749-168.22265624 25.04882813 39.81445313 57.48046875 71.19140625 95.27343749 63.36914062 92.19726563-19.24804688 31.46484375-177.01171875 133.33007813-179.38476563C474.20703125 410.75 463.484375 578.18164063 500.57421875 628.3671875s108.984375 3.1640625 167.78320313-30.84960938c58.79882813-33.92578125 77.08007813 14.23828125 106.96289062 0.52734376 29.97070313-13.7109375 64.3359375-98.26171875 100.10742188-81.12304688 5.00976563 2.28515625 10.28320313 6.15234375 15.55664062 11.33789063z" fill="#BA8B61" p-id="1030"></path><path d="M862.24414063 636.453125c-37.265625 85.16601563-107.13867188 158.99414063-201.62109376 202.1484375-180.43945313 82.52929688-386.80664063 24.16992188-480.67382812-129.375-4.921875-76.90429688 0.79101563-160.04882813 43.33007813-176.66015625 80.77148438-31.640625 86.74804688 181.23046875 130.95703124 182.19726563s43.50585938-79.98046875 109.16015626-44.64843751 59.32617188 175.4296875 139.65820312 119.88281251c59.50195313-41.1328125 63.36914063-80.24414063 117.15820313-95.9765625 61.25976563-18.01757813 59.94140625 61.5234375 142.03124999-57.56835938z" fill="#AF7951" p-id="1031"></path><path d="M255.7109375 320.57421875c2.19726563-10.8984375 45-39.11132813 54.40429688-24.87304688 9.40429688 14.23828125 5.36132813 92.98828125-28.30078125 81.91406251-33.66210938-11.16210938-28.30078125-46.14257813-26.10351563-57.04101563zM405.56445312 444.58789062c2.19726563-10.8984375 51.59179688-24.78515625 60.99609376-10.54687499 9.40429688 14.23828125 0.43945313 68.90625-32.6953125 56.6015625-24.43359375-9.05273438-30.49804688-35.15625-28.30078125-46.0546875zM645.41796875 522.72265625c11.42578125-2.4609375 39.7265625 36.03515625 28.4765625 50.18554688s-67.76367188 28.30078125-65.47851563-6.328125c1.58203125-25.48828125 25.57617188-41.39648438 37.00195313-43.85742188zM153.93359375 521.93164063c9.31640625-31.81640625 80.41992188-26.015625 69.43359375 10.63476562-5.53710938 18.36914063-16.25976563 41.04492188-32.34375 39.0234375s-40.69335938-37.52929688-37.08984375-49.65820313zM353.35742187 638.12304688c17.66601563-18.72070313 76.90429688-5.36132813 67.93945313 29.88281249s-66.4453125 112.5-75.84960938 49.13085938c-6.50390625-44.296875-22.93945313-46.31835938 7.91015626-79.01367188zM498.20117187 673.45507813c20.83007813-15.38085938 76.90429688-5.36132813 67.93945313 29.88281249-8.87695313 35.24414063-25.40039063 71.63085938-56.07421875 55.28320313-18.6328125-10.01953125-32.51953125-69.87304688-11.86523438-85.16601563zM458.38671875 322.33203125c6.15234375 13.88671875 44.03320313-14.4140625 65.12695313-29.79492188 21.09375-15.38085938-6.94335938-42.80273438-27.59765626-30.49804687-20.7421875 12.39257813-47.8125 37.17773438-37.52929687 60.29296875z" fill="#662E39" p-id="1032"></path><path d="M730.671875 234.265625c9.22851563 36.5625 24.16992188 13.44726563 26.80664063 2.02148438s-31.11328125-19.07226563-26.80664063-2.02148438zM814.87109375 339.91015625c-7.29492188-14.765625-49.04296875-4.48242188-51.328125 7.91015625s14.15039063 34.1015625 25.3125 29.00390625c11.16210938-5.09765625 33.3984375-22.23632813 26.015625-36.9140625z" fill="#CC9E79" p-id="1033"></path><path d="M867.60546875 428.328125v-0.26367188c-0.703125-5.18554688-5.53710938-8.87695313-10.81054688-8.26171874-0.703125 0.08789063-1.31835938 0.26367188-1.93359374 0.43945312-11.25 2.37304688-23.99414063 1.58203125-36.2109375 0.3515625-11.51367188-1.14257813-25.57617188-3.42773438-32.51953125-10.72265625l-0.17578125-0.17578125c-1.49414063-1.58203125-5.80078125-6.06445313-13.18359375-2.98828125-0.26367188 0.08789063-0.61523438 0.26367188-1.0546875 0.43945313-5.36132813 2.02148438-10.546875 3.42773438-15.55664063 4.13085937-7.82226563 1.23046875-14.23828125 0.703125-19.07226562-1.49414063-5.2734375-2.28515625-10.10742188-7.29492188-13.359375-13.71093749-3.60351563-7.29492188-5.18554688-15.73242188-4.13085938-23.37890626 0.3515625-2.63671875-0.52734375-5.36132813-2.28515625-7.47070312s-4.48242188-3.33984375-7.29492187-3.33984375h-0.17578125c-4.83398438 0-10.37109375-1.0546875-16.875-3.1640625-28.03710938-8.96484375-49.74609375-32.78320313-52.82226563-58.0078125-2.19726563-17.75390625 1.66992188-38.40820313 10.72265625-56.953125 1.31835938-2.72460938 1.23046875-5.88867188-0.08789063-8.52539063s-3.69140625-4.48242188-6.59179687-5.18554687c-4.83398438-1.0546875-9.93164063-3.42773438-14.23828125-5.625-12.56835938-6.41601563-21.62109375-12.83203125-27.86132813-19.6875-5.09765625-5.71289063-9.40429688-13.27148438-13.00781249-23.29101563-4.21875-11.51367188-7.03125-23.99414063-8.17382813-36.12304687-0.17578125-2.19726563-1.14257813-4.21875-2.63671875-5.80078125-3.07617188-3.42773438-8.17382813-3.69140625-14.765625-4.04296875H562.00976563c-4.04296875-0.43945313-8.0859375-0.703125-12.04101563-1.0546875l-0.96679687-0.08789062c-8.70117188-0.52734375-17.13867188-0.87890625-25.13671875-0.96679688-17.2265625-0.08789063-34.36523438 0.96679688-50.88867188 2.98828125-34.8046875 4.39453125-69.08203125 13.44726563-101.86523438 26.89453125-56.953125 23.46679688-108.10546875 59.85351563-147.83203124 105.1171875-21.53320313 24.609375-39.63867188 51.59179688-53.87695313 80.15625-1.14257813 2.28515625-1.40625 4.83398438-0.61523438 7.29492188s2.54882813 4.48242188 4.921875 5.71289062l0.17578125 0.08789063c1.31835938 0.61523438 2.72460938 0.87890625 4.13085938 0.87890625 3.69140625 0 7.03125-2.109375 8.52539062-5.36132813 13.359375-26.89453125 30.5859375-52.47070313 51.06445313-76.02539063 37.70507813-43.06640625 86.30859375-77.60742188 140.53710938-100.01953124 31.11328125-12.83203125 63.6328125-21.4453125 96.85546874-25.6640625 15.99609375-2.02148438 32.34375-2.98828125 48.42773438-2.90039063 9.05273438 0.08789063 16.78710938 0.43945313 23.90625 0.96679688 4.21875 0.26367188 8.4375 0.703125 12.48046875 1.14257812h0.43945312c0.26367188 0 0.87890625 0 1.49414063 0.08789063h0.61523437c1.58203125 11.33789063 4.48242188 22.76367188 8.34960938 33.31054687 4.5703125 12.48046875 10.01953125 22.1484375 16.78710937 29.53125 7.64648438 8.52539063 18.6328125 16.34765625 33.48632813 23.90625 2.4609375 1.23046875 5.00976563 2.4609375 7.82226562 3.60351563-7.47070313 19.16015625-10.28320313 39.46289063-8.0859375 57.56835937 2.02148438 16.78710938 9.93164063 32.95898438 22.76367188 46.58203125 11.77734375 12.48046875 27.0703125 22.23632813 43.2421875 27.421875 4.5703125 1.49414063 8.87695313 2.54882813 13.0078125 3.25195313 0.43945313 8.52539063 2.63671875 17.05078125 6.50390625 24.43359375 5.2734375 10.28320313 13.53515625 18.45703125 22.67578125 22.58789062 8.26171875 3.69140625 18.28125 4.65820313 29.79492187 2.98828125 5.53710938-0.79101563 10.98632813-2.19726563 16.43554688-4.04296875 11.25 9.22851563 27.0703125 12.04101563 41.22070312 13.53515625 6.76757813 0.61523438 13.97460938 1.23046875 21.4453125 1.23046875 4.04296875 0 7.734375-0.17578125 11.33789063-0.52734375 1.66992188 20.390625 1.23046875 41.39648438-1.31835938 62.66601563-9.140625 75.9375-45.52734375 148.62304688-102.39257812 204.78515624-3.8671875 3.69140625-3.95507813 9.84375-0.17578125 13.71093751l0.08789062 0.08789062c1.84570313 1.84570313 4.30664063 2.90039063 6.85546875 2.90039063 2.54882813 0 5.00976563-1.0546875 6.85546875-2.98828125 59.94140625-59.15039063 98.26171875-135.96679688 108.01757813-216.21093751 3.33984375-25.83984375 3.42773438-51.76757813 0.52734375-76.72851562zM665.01757813 768.37695313c-4.74609375 2.72460938-9.93164063 5.44921875-15.73242188 8.43749999-41.30859375 20.65429688-84.99023438 33.57421875-129.90234375 38.3203125-46.7578125 4.921875-94.83398438 0.703125-139.13085938-12.21679687-43.06640625-12.65625-83.49609375-33.92578125-117.07031249-61.5234375-33.92578125-27.94921875-61.96289063-63.36914063-80.94726563-102.39257813-23.73046875-48.95507813-34.1015625-103.62304688-29.97070312-158.20312499 0.26367188-2.63671875-0.61523438-5.09765625-2.28515625-7.11914063-1.66992188-1.93359375-3.95507813-3.07617188-6.50390625-3.33984375-2.63671875-0.26367188-5.09765625 0.61523438-7.11914063 2.28515625-1.93359375 1.66992188-3.07617188 3.95507813-3.33984375 6.59179687-4.48242188 58.09570313 6.59179688 116.19140625 31.90429688 168.22265626 20.21484375 41.66015625 50.00976563 79.27734375 85.95703125 108.89648437 35.68359375 29.26757813 78.57421875 51.76757813 124.01367187 65.0390625 33.92578125 9.93164063 69.69726563 15.02929688 106.171875 15.02929688 13.44726563 0 26.98242188-0.703125 40.34179688-2.10937501 47.19726563-5.09765625 93.1640625-18.6328125 136.49414062-40.25390625 6.15234375-3.1640625 11.6015625-5.9765625 16.61132813-8.7890625l0.08789062-0.08789062c2.19726563-1.31835938 3.8671875-3.33984375 4.5703125-5.80078125 0.703125-2.54882813 0.3515625-5.18554688-0.96679687-7.47070313-2.72460938-4.5703125-8.4375-6.15234375-13.18359375-3.515625zM732.34179688 242v0.703125h4.39453124c11.953125-0.08789063 19.6875-14.32617188 21.70898438-23.203125 1.58203125-6.50390625-1.40625-13.0078125-7.91015625-17.40234375-7.82226563-5.2734375-20.7421875-7.3828125-28.74023438-1.84570313-5.44921875 3.77929688-7.64648438 10.28320313-5.88867187 17.49023438 3.42773438 13.97460938 8.96484375 22.06054688 16.43554687 24.2578125z m3.25195312-25.48828125c0.08789063 0 0.17578125 0 0.26367187 0.08789063 1.23046875 0.26367188 2.19726563 0.61523438 2.90039063 0.96679687-0.43945313 1.23046875-1.0546875 2.28515625-1.58203125 3.1640625-0.43945313-1.0546875-0.96679688-2.37304688-1.58203125-4.21875z" fill="#934A19" p-id="1034"></path><path d="M748.68945313 324.44140625c-2.54882813 14.23828125 9.31640625 32.95898438 23.46679687 37.00195313 1.58203125 0.43945313 3.25195313 0.703125 4.921875 0.703125 5.9765625 0 10.81054688-2.98828125 13.97460937-5.00976563 5.71289063-3.60351563 10.72265625-7.82226563 14.85351563-12.48046875 5.00976563-5.71289063 9.75585938-14.94140625 8.4375-23.99414062-0.87890625-5.71289063-4.21875-10.546875-9.40429688-13.7109375-7.99804688-4.83398438-18.80859375-5.44921875-32.08007812-1.7578125h-0.17578125c-5.36132813 1.49414063-21.62109375 6.06445313-23.99414063 19.24804687z m28.47656249 18.28125c-4.5703125-1.49414063-9.93164063-9.75585938-9.4921875-14.4140625 0.52734375-0.52734375 2.8125-2.4609375 10.1953125-4.48242188 7.734375-2.02148438 14.0625-2.109375 16.96289063-0.35156249 0.17578125 0.08789063 0.26367188 0.17578125 0.3515625 0.26367187 0.17578125 1.58203125-1.40625 5.36132813-3.8671875 8.26171875-2.8125 3.25195313-6.41601563 6.24023438-10.63476563 8.87695313-1.0546875 0.52734375-2.8125 1.58203125-3.515625 1.84570312z" fill="#934A19" p-id="1035"></path></svg>