<?xml version="1.0" standalone="no"?><!DOCTYPE svg PUBLIC "-//W3C//DTD SVG 1.1//EN" "http://www.w3.org/Graphics/SVG/1.1/DTD/svg11.dtd"><svg t="1566898753707" class="icon" viewBox="0 0 1024 1024" version="1.1" xmlns="http://www.w3.org/2000/svg" p-id="10118" xmlns:xlink="http://www.w3.org/1999/xlink" width="64" height="64"><defs><style type="text/css"></style></defs><path d="M241.1 779.2c0.1 2-1.9 8-1.9 8L219 838c-4.9 8.6 1.4 19.3 11.3 19.2l270.9-9.2 278.7 2.3c10.4-0.2 17-11.1 12.3-20.4l-19.3-34.4c-180.1 24.7-385 3.9-531.8-16.3z" fill="#80A4D1" p-id="10119"></path><path d="M799.5 450.4c-4.9-40.6-8.5-81.2-13.4-121.8-5.4-44.6-16.7-89.2-22.1-133.8-61.6-13-145.3-29.7-243-19.7-83.1 8.5-166.3 21.3-244.6 36.9l1 5.1c0.5 2.6-0.1 5.3-1.7 7.4-38.3 54-53.3 244.3-40.4 389.7 1.9 20.9 1 48.4 1.6 69.5 0.4 11.2 0.7 21.7 1.1 31.4 1.3 32.8 2.5 56.1 3 64.1 33 6.5 66.1 12.2 99.2 17.1 144 21 289 24.9 435.4 4.8l-2.8-5.6c13.1-83.3 36.8-223.2 26.7-345.1z" fill="#C3D2E0" p-id="10120"></path><path d="M266 498.5h-0.2c-7.2-0.1-12.9-6-12.8-13.2 0.2-12.9 0.6-14.4 1.1-24.6 0.1-2.5 0.3-5.1 0.4-8.1 0.4-7.2 6.4-12.7 13.6-12.3 7.2 0.4 12.7 6.5 12.3 13.6-0.2 3-0.3 5.7-0.4 8.2-0.5 10.2-0.9 11.2-1.1 23.6 0 7.1-5.8 12.8-12.9 12.8z m4.6-77.5c-0.4 0-0.8 0-1.2-0.1-7.1-0.6-12.4-6.9-11.8-14.1 4.3-49.2 15.6-137.3 42.5-175.2 4.2-5.8 12.3-7.2 18.1-3.1 5.9 4.2 7.2 12.3 3.1 18.1-17.1 24.1-30.9 83.3-37.8 162.4-0.5 6.9-6.2 12-12.9 12z" fill="#FFF6ED" p-id="10121"></path><path d="M765.4 205c-0.1-1.7 0 0 0 0l15-31.9c4.7-8.1 1.7-18.5-6.6-22.8-140.9-73.6-465.1-13.8-480.8-4.8-16 9.1-26.5-2.9-34.7-0.9-10.2 2.4-15.1 14-9.9 23l28 44.4c157.6-25.2 329.6-53.2 489-7z" fill="#80A4D1" p-id="10122"></path><path d="M711 665.3c5.8 3.9 11.6 8 16.7 12.2-4.8-5.2-10.4-9.4-16.7-12.2z" fill="#C99B7B" p-id="10123"></path><path d="M546 490.3s33.5 5.9 36.8 40.4c3.4 34.5-13.5 68.1-75.2 79.8s28.5-116.8 38.4-120.2z" fill="#FFE361" p-id="10124"></path><path d="M472.5 533.8c15.1-1.5 22.3-4.1 26.4-7.5 4.1-3.4 28.7-32.3 46-35.9 0 0-21.3 44.1-23.9 59.8-2.6 15.7-7.1 56.4-23.2 79.6-16.1 23.2-45.7 48.8-92 46.7-46.3-2-87.3-66.8-81.6-100.5s35-49.8 92.3-45.3 48.9 3.8 56 3.1z m225.9 149.8s-11.7-39.1-72-49.1S527 659.1 521 686c-8.5 38 7.1 79.2 61.3 84.8 0 0 40.8-47 54.2-57 13.3-10.1 61.9-30.2 61.9-30.2z" fill="#F7B82B" p-id="10125"></path><path d="M698.4 683.6c-7.7-21.5-39.9-21-57.8-15.1-3.6 1.2-6.8 2.9-10 4.6-29.1 15.8-47.4 45.6-48.5 97.5h0.2s40.8-47 54.2-57c13.3-9.9 61.9-30 61.9-30z" fill="#FFE361" p-id="10126"></path><path d="M526.8 290.7c0.9-0.1 1.6-0.2 2.3-0.2h1.8c1.5-0.1 2.9-0.2 4.1-0.2 1.2-0.1 3.3-0.3 6.1-0.9v7.6c-0.1 1-0.2 2-0.2 3.2v4.2h-4.6c-0.8 0-1.5-0.1-2-0.2s-1.2-0.2-1.9-0.2c-0.7-0.1-2.1-0.1-4.3-0.1-0.4-1.5-0.7-2.7-0.9-3.7-0.2-1-0.3-2-0.4-3.2l-0.6-5.7 0.6-0.6z m0.5 76.8c0-1.4 0-2.8 0.1-4.3s0.1-2.8 0.1-4.1c0-1.8 0-3.6 0.1-5.4 0.1-1.8 0.1-3.6 0.1-5.6 0-3.8-0.1-8.1-0.2-12.9-0.2-4.8-0.5-10.6-0.9-17.4l12.3-2.9c0.6 5.1 1.2 9.4 1.5 13 0.4 3.6 0.7 6.9 1 9.9 0.3 3 0.5 5.8 0.6 8.6 0.1 2.7 0.2 5.8 0.3 9.1l0.5 12h-15.5z m-151.9 3.8c-3.7-0.6-7.9-1.5-12.7-2.9-4.8-1.3-9.5-3.9-13.9-7.5-4.4-3.7-8.2-8.8-11.3-15.5-3.1-6.7-4.6-15.5-4.6-26.5 0.2-7.7 1.3-14.3 3.2-19.7 1.9-5.4 4.3-9.9 7.2-13.5 2.9-3.6 6.1-6.4 9.7-8.4 3.6-2 7.1-3.5 10.6-4.5 6.6-1.5 12.5-2.3 17.7-2.3 5.2 0 10.3 0.5 15.2 1.4 4.9 1 9.6 2.4 13.9 4.2 4.3 1.8 8.2 4.1 11.6 6.7 3.4 2.6 6 5.5 8 8.5l-14 16.3c-1.9-1.3-4.7-2.8-8.3-4.3-3.6-1.5-7.4-2.9-11.6-4.1-4.2-1.2-8.4-2-12.7-2.5-4.3-0.5-8.3-0.3-11.7 0.4-4.1 0.8-7.3 2.9-9.7 6.2-2.4 3.4-3.6 8-3.6 13.8-0.2 8.1 1.3 14.7 4.6 19.8 3.3 5.1 7.6 8.2 13 9.1 1.2 0.4 2.4 0.6 3.8 0.6h4.3c3.5 0 7.1-0.3 10.9-1 3.8-0.7 7.4-1.6 10.9-2.9 3.5-1.3 6.6-2.7 9.4-4.3 2.8-1.6 5-3.5 6.5-5.6l11.6 15.9c-4.8 6.2-11.4 11.6-19.7 16.4-8.3 4.7-17.7 7.1-28.1 7.1-3.7 0-7.1-0.3-10.2-0.9z m75.1-3.6c-0.3-2.4-0.6-6.2-0.8-11.5-0.2-5.3-0.3-11.3-0.3-18.1 0-4.1 0.1-8.3 0.2-12.7 0.1-4.4 0.3-8.6 0.5-12.9 0.2-4.2 0.5-8.2 0.9-12 0.4-3.8 0.8-7.3 1.4-10.4l11.3 0.2c0 3.1 0.1 7.1 0.3 11.9 0.2 4.8 0.4 10.1 0.6 15.9 2.3-1.2 4.7-2.2 7.4-2.9 2.6-0.8 5.5-1.1 8.5-1.1 2.8 0 5.9 0.6 9.4 1.7 3.4 1.1 6.5 2.6 9.1 4.4 3.2 2.8 5.7 6.5 7.5 11 1.8 4.5 2.7 10 2.7 16.5 0 1.6-0.1 3-0.2 4.2-0.1 1.2-0.2 2.3-0.4 3.4s-0.4 2.1-0.6 3.2c-0.2 1-0.5 2.2-0.8 3.6l-1.5 6.3-16.6-1.8c1.1-5.2 1.9-9.3 2.5-12.4 0.6-3.1 0.9-6.2 0.9-9.5 0-4.9-0.9-8.9-2.8-12.2-1.9-3.3-4.8-4.9-8.6-4.9-2.8 0-5.7 0.5-8.6 1.5-2.9 1-5.2 1.9-6.8 2.7 0.2 3.6 0.4 7.2 0.5 10.9 0.1 3.7 0.2 7.3 0.2 10.8 0 2.5 0 5-0.1 7.7-0.1 2.6-0.2 5-0.4 7.2l-14.5-0.2-0.9-0.5z m110.4 19.2c-0.1-1.1-0.2-2.6-0.2-4.4-0.1-1.9-0.1-4.1-0.1-6.5 0-4.6 0.1-10 0.3-16.2 0.2-6.1 0.6-12.4 1.1-18.7 0.5-6.3 1.1-12.4 1.8-18.3s1.5-10.9 2.5-15.1l11.2 0.5c-0.1 0.8-0.2 1.6-0.2 2.4v2.9c1.9-0.5 4.3-1.1 7-1.6s5.6-0.8 8.5-0.8c1.8 0 3.7 0.2 5.7 0.6 1.9 0.4 3.8 1.1 5.5 1.9 1.9 1.1 3.8 2.2 5.6 3.4 1.8 1.2 3.4 2.5 5 4s2.9 3.1 4 5 2 4 2.5 6.4c0.2 1.5 0.4 2.9 0.6 4.1 0.2 1.2 0.2 2.6 0.2 4 0 5.2-1.1 9.5-3.2 13.1-2.2 3.6-5.1 6.6-8.9 9.1-1.8 1.2-4.1 2.2-6.8 3.2-2.7 0.9-5.8 1.4-9.2 1.4-2.5 0-5-0.2-7.7-0.7-2.6-0.5-5.5-1.3-8.6-2.5-0.1 4.5-0.3 8.9-0.5 13.1-0.2 4.2-0.4 7.9-0.6 11.2l-14.7-0.6-0.8-0.9z m37.5-61.3c-2.2-0.5-3.9-0.8-5.3-0.8-3 0-6.1 0.3-9.1 1-3.1 0.6-5.3 1.2-6.7 1.6v10.8c0 2.2 0 4.2 0.1 6.2s0.1 4.1 0.1 6.4c1.8 0.5 3.8 1 5.8 1.4 2 0.4 3.8 0.6 5.3 0.6 5.3 0 9.6-1.4 12.9-4.1 3.3-2.7 4.8-6.5 4.6-11.4-0.3-3.3-1-5.8-2.1-7.4-1.2-1.7-3-3.1-5.6-4.3z m77.2 45.1c-5.8 0.4-11.1-0.4-15.9-2.3-4.8-1.9-9.1-4.1-12.7-6.7-3.7-2.5-6.5-4.9-8.5-7.2s-3.1-3.8-3.3-4.3l13.6-15.9c3.1 3.3 7 6.1 11.9 8.4 4.8 2.3 9.4 3.5 13.6 3.5 4.8 0 8.2-2.4 10.1-7.2-0.2-2.3-2.3-4.6-6.2-6.9-4-2.3-9.3-3.7-16.1-4.1-2.9 0-6-0.5-9.4-1.6-3.4-1.1-6.5-2.8-9.4-5.2-2.9-2.4-5.3-5.6-7.2-9.7-1.9-4.1-2.8-9.1-2.6-15.1 0-5.8 1-10.8 3-14.9s4.8-7.6 8.4-10.3c3.6-2.7 7.8-4.7 12.6-6.1 4.8-1.3 10-2.1 15.6-2.3 9.8-0.4 18.6 1.4 26.2 5.4 7.6 4 13 11.4 16.1 22.4l-19.1 9.8c-3.3-3.7-6.9-7.3-10.7-10.9-3.9-3.6-7.6-5.2-11.3-4.8-1.2 0-2.7 0.4-4.5 1.2-1.8 0.8-3.6 1.7-5.4 2.9-1.7 1.2-3.2 2.4-4.3 3.8-1.2 1.4-1.7 2.6-1.7 3.8 0.2 2.1 0.9 3.9 2.2 5.4 1.3 1.4 2.8 2.7 4.6 3.6 1.8 1 3.9 1.7 6.2 2.3 2.3 0.6 4.6 1.2 6.9 1.7 2.9 1 5.9 1.9 9 2.9 3.1 1 5.8 2 8.1 3.2 5.6 3.7 9.8 7.9 12.7 12.7 2.9 4.8 3.7 10.8 2.3 18-0.6 3.5-1.4 6.6-2.3 9.4-1 2.8-2.7 5.2-5.1 7.2-2.4 2-5.8 3.7-10.1 5.1-4.4 1.3-10.1 2.3-17.3 2.8z m39.7 95.9c-65.5-8.1-104-12.9-193.5-12.9-113.6 0-125.6 4.7-193.5 12.9 9.6-8.6 19.3-20.2 28.9-28.8l-28.9-18.7c65.6-6.9 82.8-12.9 193.5-12.9 124.2 0 129.1 5.6 193.5 12.9-9.6 8.6-19.3 10.1-28.9 18.7l28.9 28.8z" fill="#4B577D" p-id="10127"></path><path d="M392.5 449.6c0-0.3-0.1-0.6-0.1-1.1 0-0.5-0.1-1-0.1-1.6-0.1-1.2-0.2-2.5-0.2-4-0.1-1.5-0.1-3.1-0.1-4.7s0.1-3.1 0.1-4.6c0.1-1.5 0.2-2.7 0.4-3.8l2.8-0.1v0.6c0 0.2 0 0.5 0.1 0.7 0.5-0.2 1-0.3 1.7-0.5s1.4-0.3 2.1-0.4c0.5 0 0.9 0 1.4 0.1 0.5 0.1 1 0.2 1.4 0.4 0.5 0.2 1 0.5 1.5 0.7 0.5 0.3 0.9 0.6 1.3 0.9 0.4 0.3 0.8 0.7 1.1 1.2 0.3 0.5 0.6 1 0.7 1.5 0.1 0.4 0.2 0.7 0.2 1 0.1 0.3 0.1 0.6 0.1 1 0.1 1.3-0.1 2.4-0.6 3.3-0.5 0.9-1.2 1.7-2.1 2.4-0.4 0.3-1 0.6-1.6 0.9-0.7 0.3-1.4 0.4-2.3 0.5h-1.9c-0.7-0.1-1.4-0.2-2.2-0.5 0.1 1.1 0.1 2.2 0.1 3.3v2.8l-3.7 0.1-0.1-0.1z m8.2-15.9c-0.5-0.1-1-0.1-1.3-0.1-0.8 0.1-1.5 0.2-2.3 0.4-0.8 0.2-1.3 0.4-1.6 0.5l0.2 2.7c0 0.5 0.1 1.1 0.1 1.6s0.1 1 0.1 1.6c0.5 0.1 1 0.2 1.5 0.2 0.5 0.1 1 0.1 1.3 0 1.3-0.1 2.4-0.5 3.1-1.3 0.8-0.7 1.1-1.7 0.9-2.9-0.1-0.8-0.4-1.4-0.7-1.8-0.1-0.4-0.6-0.7-1.3-0.9z m17.2 9.3c-0.8 0-1.6-0.1-2.5-0.4-0.8-0.3-1.6-0.7-2.3-1.2-0.7-0.5-1.3-1.2-1.8-1.9-0.5-0.8-0.7-1.6-0.8-2.5-0.1-1.2 0-2.2 0.3-3.2s0.7-1.8 1.2-2.5c0.6-0.7 1.2-1.3 2-1.7 0.8-0.4 1.7-0.7 2.7-0.8 1.5-0.1 2.7 0 3.8 0.4 1.1 0.3 2 0.8 2.7 1.5 0.7 0.7 1.3 1.5 1.6 2.4 0.4 0.9 0.6 2 0.6 3.1 0.1 1-0.1 2-0.5 2.8-0.4 0.8-1 1.5-1.7 2.1-0.7 0.6-1.5 1-2.5 1.4-0.7 0.2-1.8 0.4-2.8 0.5z m-0.7-11.1c-0.6 0-1.2 0.2-1.6 0.5-0.4 0.3-0.8 0.7-1 1.2-0.2 0.5-0.4 1-0.4 1.5s0 1.1 0.1 1.5c0 0.4 0.2 0.7 0.4 1.1 0.2 0.4 0.5 0.7 0.8 1 0.3 0.3 0.7 0.5 1.1 0.7 0.4 0.2 0.8 0.3 1.3 0.2 1.3-0.1 2.3-0.4 2.9-1.1 0.7-0.7 0.9-1.5 0.8-2.4-0.1-0.9-0.3-1.7-0.5-2.3-0.2-0.6-0.5-1.1-0.8-1.4-0.3-0.3-0.7-0.5-1.2-0.6-0.6 0-1.2 0-1.9 0.1z m11.9-2.4l3.3 0.2c0-1.9 0-3.4 0.1-4.6s0.1-1.9 0.2-2l3.8 0.2c-0.1 0.8-0.2 1.8-0.3 2.9-0.1 1.1-0.1 2.3-0.2 3.5h4.6l0.6 2.2c-0.9 0.3-1.8 0.5-2.7 0.6-0.9 0.1-1.7 0.3-2.6 0.4v1.9c0 0.5 0.1 1 0.1 1.4 0 0.4 0.1 0.7 0.1 0.9 0.2 0.6 0.5 1.1 0.9 1.3s0.8 0.3 1.1 0.3c0.6 0 1.1-0.2 1.6-0.5 0.3-0.1 0.6-0.3 0.8-0.5l1.4 2.4c-0.3 0.3-0.7 0.6-1.2 0.9-0.4 0.3-0.9 0.5-1.3 0.7s-0.8 0.4-1.2 0.5c-0.4 0.1-0.7 0.2-0.8 0.2-0.5 0-1.1 0-1.7-0.1-0.6-0.1-1.1-0.4-1.6-0.8s-0.9-1.1-1.3-2c-0.4-0.9-0.6-2-0.7-3.5 0-0.4-0.1-0.7-0.1-1.1v-1.8c-0.4 0-0.9-0.1-1.4-0.1-0.5 0-1.1-0.1-1.8-0.2l0.3-3.3z m29.5-2.9c0.1 0.5 0.2 0.9 0.3 1.3l0.3 1.2c0.3 1.4 0.6 3 0.9 4.8 0.3 1.7 0.5 3.4 0.5 4.9v2l-3.6 0.2v-1c-0.6 0.3-1.2 0.6-1.9 0.8-0.7 0.2-1.4 0.4-2.1 0.4h-0.6c-0.2 0-0.4 0-0.6-0.1-0.5-0.1-1-0.2-1.7-0.3-0.6-0.2-1.3-0.5-1.9-0.9-0.6-0.5-1.1-1.1-1.6-1.9-0.4-0.8-0.7-2-0.7-3.4 0-1 0.1-1.9 0.3-2.7 0.2-0.8 0.5-1.4 0.9-1.9s0.8-0.9 1.2-1.2c0.4-0.3 0.9-0.5 1.3-0.6 0.5-0.1 0.9-0.2 1.3-0.2s0.8-0.1 1.1-0.1c1.4-0.1 2.7 0.1 3.8 0.5 0-0.2-0.1-0.4 0-0.7v-0.7l2.5-0.6 0.3 0.2z m-2.4 5.5c-0.5-0.2-1.2-0.4-1.9-0.6-0.8-0.2-1.5-0.3-2.2-0.3-0.5 0-0.9 0.1-1.2 0.2-0.5 0.2-0.9 0.6-1.2 1-0.3 0.4-0.4 1-0.4 1.8 0 1 0.3 1.9 0.7 2.5 0.4 0.7 1 1.1 1.7 1.2h1.1c0.7 0 1.4-0.1 2.1-0.4 0.7-0.2 1.3-0.5 1.8-0.8l-0.5-4.6z m8.8-4.2l3.3 0.3a53.559 53.559 0 0 1 0.4-6.5l3.8 0.3c-0.1 0.8-0.2 1.8-0.3 2.9-0.1 1.1-0.2 2.3-0.3 3.5 0.6 0 1.3 0.1 2.1 0.1h2.5l0.6 2.2-2.7 0.6c-0.9 0.1-1.7 0.2-2.6 0.3v1.9c0 0.5 0 1 0.1 1.4 0 0.4 0.1 0.7 0.1 0.9 0.2 0.6 0.5 1.1 0.9 1.3 0.4 0.2 0.7 0.4 1.1 0.3 0.6 0 1.1-0.2 1.6-0.5 0.3-0.1 0.6-0.3 0.8-0.5l1.4 2.5c-0.3 0.3-0.7 0.6-1.2 0.9-0.5 0.3-0.9 0.5-1.3 0.7-0.4 0.2-0.8 0.3-1.2 0.4-0.4 0.1-0.7 0.2-0.8 0.2-0.5 0-1.1 0-1.7-0.2-0.6-0.1-1.1-0.4-1.6-0.9s-0.9-1.1-1.2-2c-0.3-0.9-0.5-2-0.6-3.5 0-0.4-0.1-0.7-0.1-1.1v-1.8c-0.4 0-0.9-0.1-1.4-0.1-0.5 0-1.1-0.1-1.8-0.2l0.1-3.4z m23.5 12.1c-0.8 0-1.6-0.2-2.5-0.5-0.8-0.3-1.6-0.8-2.3-1.3-0.7-0.6-1.2-1.2-1.7-2-0.4-0.8-0.7-1.6-0.7-2.5 0-1.2 0.1-2.2 0.4-3.2 0.3-1 0.7-1.8 1.3-2.5 0.6-0.7 1.3-1.3 2.1-1.7s1.7-0.6 2.8-0.6c1.5 0 2.7 0.1 3.8 0.5 1.1 0.4 1.9 0.9 2.6 1.6 0.7 0.7 1.2 1.5 1.6 2.5 0.3 0.9 0.5 2 0.5 3.1s-0.2 2-0.6 2.8c-0.4 0.8-1 1.5-1.8 2-0.7 0.6-1.6 1-2.6 1.3-0.9 0.4-1.9 0.5-2.9 0.5z m-0.4-11c-0.6 0-1.2 0.2-1.6 0.5-0.4 0.3-0.8 0.7-1 1.1-0.2 0.5-0.4 0.9-0.5 1.5-0.1 0.5 0 1.1 0.1 1.5 0 0.4 0.1 0.8 0.3 1.1 0.2 0.4 0.4 0.7 0.7 1 0.3 0.3 0.7 0.6 1 0.8 0.4 0.2 0.8 0.3 1.3 0.3 1.3 0 2.3-0.3 3-1 0.7-0.7 1-1.5 0.9-2.4-0.1-0.9-0.2-1.7-0.4-2.3-0.2-0.6-0.4-1.1-0.7-1.4-0.3-0.3-0.7-0.6-1.2-0.7-0.5 0-1.1-0.1-1.9 0z m33.7 1.8c-1 0.2-1.9 0.4-2.8 0.5-0.9 0.1-1.8 0.2-2.6 0.2 0.1 1.5 0.3 3 0.5 4.4 0.2 1.4 0.4 2.5 0.6 3.3l-4 0.4s-0.1-0.2-0.1-0.7c-0.1-0.4-0.1-1-0.2-1.7s-0.2-1.6-0.3-2.5c-0.1-1-0.2-2-0.2-3.2-0.2 0-0.5-0.1-0.7-0.1-0.3 0-0.5-0.1-0.6-0.1l-2.2-0.3 0.1-3.3 3.3 0.3v-1.7c0-1.5 0.2-2.7 0.4-3.6 0.2-0.9 0.6-1.6 1-2.1s0.9-0.8 1.4-1c0.5-0.2 1-0.2 1.6-0.2 0.2 0 0.5 0 0.9 0.1s0.7 0.2 1.1 0.4c0.4 0.2 0.8 0.4 1.3 0.6s0.8 0.5 1.2 0.8l-1.2 2.6-0.8-0.3c-0.2-0.1-0.5-0.2-0.7-0.2-0.3-0.1-0.6-0.1-0.8-0.1-0.4 0-0.7 0.1-1 0.3-0.3 0.2-0.5 0.6-0.7 1.1-0.1 0.2-0.1 0.4-0.1 0.6v3c0.7 0 1.5 0 2.3 0.1h3l0.5 2.1-0.2 0.3z m8.2-10.4v18.8l-2.7 0.8c-0.4-2.3-0.7-4.5-0.8-6.7-0.1-2.2-0.2-4.5-0.2-6.9v-3c0-1.1 0-2.1 0.1-3.1l3.6 0.1z m17.9 5c0 0.5 0.1 0.9 0.2 1.3s0.1 0.8 0.2 1.3c0.2 1.5 0.4 3.1 0.7 4.8 0.2 1.7 0.3 3.4 0.3 4.9v1c0 0.4 0 0.7-0.1 1l-3.5 0.1v-1c-0.6 0.3-1.2 0.5-1.9 0.7-0.7 0.2-1.4 0.3-2.2 0.3h-0.6c-0.2 0-0.4-0.1-0.6-0.1-0.5-0.1-1-0.2-1.6-0.4-0.6-0.2-1.2-0.5-1.8-1-0.6-0.5-1.1-1.2-1.5-2-0.4-0.9-0.6-2-0.6-3.4 0-1 0.2-1.9 0.5-2.6 0.3-0.7 0.6-1.3 1-1.8s0.8-0.9 1.3-1.1c0.5-0.3 0.9-0.4 1.3-0.5 0.5-0.1 0.9-0.1 1.3-0.1h1.2c1.4 0 2.7 0.3 3.8 0.7v-1.4l2.6-0.5v-0.2z m-2.6 5.4c-0.5-0.2-1.1-0.5-1.9-0.8-0.8-0.3-1.5-0.4-2.2-0.4-0.5 0-0.9 0-1.2 0.1-0.5 0.2-0.9 0.5-1.2 0.9-0.3 0.4-0.5 1-0.5 1.8 0 1 0.2 1.9 0.6 2.6 0.4 0.7 0.9 1.1 1.6 1.3 0.2 0 0.4 0.1 0.5 0.1h0.6c0.7 0 1.4-0.1 2.1-0.2 0.7-0.2 1.3-0.4 1.8-0.7l-0.2-4.7z m13-4.3c0.1 0.8 0.2 1.6 0.4 2.4 0.2 0.8 0.4 1.7 0.7 2.5 0.3 0.9 0.6 1.7 0.9 2.5 0.4 0.8 0.8 1.6 1.3 2.3 0.1-0.1 0.3-0.4 0.6-0.9s0.7-1.1 1.1-1.9c0.4-0.8 0.9-1.8 1.3-3s0.9-2.5 1.2-4l3.1 0.3c-0.2 2.1-0.4 3.9-0.8 5.3-0.3 1.4-0.7 2.6-1.1 3.5-0.4 0.9-0.8 1.7-1.2 2.3-0.4 0.6-0.8 1.1-1.2 1.5l-0.6 0.7h-4.3c-1.1-1.1-2.1-2.4-2.8-3.8-0.7-1.4-1.3-2.7-1.7-3.9-0.4-1.2-0.7-2.3-0.8-3.2-0.2-0.9-0.2-1.4-0.3-1.5l4.2-1.1z m21.2 14.1c-0.8-0.1-1.6-0.3-2.4-0.6-0.8-0.4-1.5-0.9-2.2-1.5-0.6-0.6-1.2-1.3-1.6-2.1-0.4-0.8-0.6-1.6-0.6-2.5 0-1.2 0.2-2.2 0.6-3.2 0.4-0.9 0.9-1.7 1.5-2.4s1.4-1.2 2.2-1.5c0.8-0.4 1.8-0.5 2.8-0.5 1.5 0.1 2.7 0.3 3.7 0.7 1 0.4 1.9 1 2.5 1.8 0.7 0.7 1.1 1.6 1.4 2.6 0.3 1 0.4 2 0.3 3.1 0 1-0.3 2-0.8 2.7-0.5 0.8-1.1 1.4-1.9 1.9-0.8 0.5-1.6 0.9-2.6 1.1-0.8 0.3-1.9 0.4-2.9 0.4z m0.3-11.1c-0.6 0-1.2 0.1-1.7 0.4-0.5 0.3-0.8 0.6-1.1 1.1-0.3 0.4-0.5 0.9-0.5 1.5-0.1 0.5-0.1 1 0 1.5 0 0.4 0.1 0.8 0.3 1.1 0.2 0.4 0.4 0.7 0.7 1.1 0.3 0.3 0.6 0.6 1 0.8 0.4 0.2 0.8 0.3 1.3 0.3 1.3 0.1 2.3-0.2 3-0.9 0.7-0.6 1.1-1.4 1-2.3 0-0.9-0.1-1.7-0.3-2.3-0.1-0.6-0.4-1.1-0.6-1.4-0.3-0.3-0.7-0.6-1.2-0.7-0.5-0.1-1.1-0.2-1.9-0.2z m26.6 0.2c0.1 0.9 0.2 1.8 0.3 2.6s0.2 1.6 0.2 2.3c0.1 0.7 0.1 1.5 0.1 2.3v2.5c0 0.3 0 0.6-0.1 1 0 0.4-0.1 0.8-0.1 1.1l-3.8-0.1 0.1-1.6c-1.7 0.9-3.3 1.4-4.9 1.3-0.7 0-1.4-0.2-2.1-0.5-0.7-0.3-1.3-0.7-1.9-1.3-0.3-0.3-0.6-0.6-0.8-0.9-0.3-0.4-0.5-0.8-0.6-1.3-0.2-0.5-0.3-1.1-0.4-1.9-0.1-0.7-0.1-1.6-0.1-2.6 0.1-1.4 0.3-3.2 0.6-5.3l4.3 0.5c-0.2 0.9-0.4 1.7-0.5 2.4-0.1 0.7-0.2 1.4-0.2 2-0.1 1.7 0.1 2.9 0.5 3.7 0.4 0.8 0.9 1.2 1.6 1.3 1.2 0.1 2 0.1 2.6-0.1 0.6-0.1 1.1-0.3 1.6-0.5l0.1 0.2c0 0.1 0.1 0.2 0.1 0.3 0 0.1 0.1 0.2 0.2 0.4v-5l0.1-4.4 3-0.4 0.1 2z m16.1 3.9c-0.8-0.5-1.7-0.8-2.9-0.9-0.6 0-1.3 0-1.9 0.1-0.6 0.1-1.2 0.3-1.8 0.6l0.2 8.6-3.9-0.2c-0.2-1.3-0.3-2.7-0.3-4.3 0-1.6 0.1-3 0.1-4.4 0-0.7 0.1-1.4 0.1-2.1 0.1-0.6 0.1-1.2 0.2-1.7l0.2-1.6 3.1-0.1 0.1 2.4c0.5-0.3 1.1-0.5 1.8-0.7 0.7-0.2 1.6-0.3 2.7-0.2 0.5 0 1 0.1 1.7 0.2 0.6 0.1 1.3 0.3 2.1 0.5l-1.3 3.7-0.2 0.1zM641 438c-1.2 0.2-2.3 0.4-3.3 0.5-1 0.1-1.9 0.1-2.8 0-1-0.1-1.8-0.2-2.6-0.4s-1.6-0.4-2.3-0.7c0.1 1.2 0.5 2 1.3 2.5s1.8 0.7 2.8 0.8h1.9c0.6 0 1.3-0.1 2-0.2 0.1 0.5 0.1 1.1 0.2 1.6s0.1 1 0.2 1.5c-1.8 0.3-3.4 0.4-4.7 0.3-1.2-0.1-2.3-0.4-3.3-0.8s-1.8-1.2-2.4-2.2c-0.2-0.3-0.5-0.9-0.9-1.7-0.3-0.8-0.5-1.8-0.4-3 0.1-1 0.4-2.2 0.9-3.6 0.3-0.5 0.6-0.9 1.2-1.4 0.5-0.4 1.1-0.8 1.7-1 0.6-0.3 1.3-0.5 2-0.6 0.7-0.2 1.3-0.2 2-0.2 1.3 0.3 2.4 0.7 3.3 1.2 0.9 0.6 1.6 1.2 2.2 1.8 0.5 0.7 0.9 1.4 1.1 2.1 0.2 0.7 0.3 1.4 0.3 2-0.1 0.8-0.1 1.3-0.3 1.5h-0.1z m-10.5-3z m0 0c0.3 0.1 0.7 0.2 1.3 0.3 0.6 0.1 1.4 0.2 2.2 0.2 0.6 0 1.2 0.1 1.8 0.1 0.6 0 1.1 0 1.7-0.1-0.1-0.7-0.2-1.2-0.4-1.6-0.2-0.4-0.5-0.7-0.8-0.9-0.3-0.2-0.7-0.3-1-0.3-0.4 0-0.7-0.1-1.1-0.1-0.6 0-1.1 0-1.5 0.2-0.4 0.2-0.8 0.4-1.1 0.7-0.3 0.3-0.5 0.5-0.7 0.8s-0.3 0.5-0.4 0.7v-0.1 0.1z m25.3 10.4l-0.1-0.8c-0.9 0.3-1.7 0.5-2.5 0.6-0.8 0.1-1.5 0.1-2.1 0.1-0.8-0.1-1.6-0.2-2.2-0.5-0.6-0.3-1.1-0.5-1.5-0.8-0.8-0.7-1.4-1.5-1.9-2.4-0.4-0.9-0.6-2-0.5-3.2 0.1-0.6 0.2-1.2 0.4-1.9 0.3-1.2 0.9-2.1 1.7-2.8 0.8-0.7 1.7-1.2 2.6-1.6 0.6-0.2 1.2-0.3 1.8-0.3 0.6-0.1 1.2-0.1 1.8 0 1.3 0.1 2.4 0.3 3.2 0.7l0.2-2.7c0.1-0.9 0.1-1.7 0.2-2.4s0.1-1.4 0.1-1.9l2.8 0.1c0.2 1.1 0.3 2.3 0.3 3.8s0.1 3 0 4.6c0 1.6-0.1 3.1-0.2 4.7-0.1 1.5-0.2 2.9-0.3 4-0.1 0.6-0.1 1.2-0.2 1.7s-0.1 0.9-0.2 1.2l-3.4-0.2z m-5-10.2c-0.6 0.2-1.1 0.5-1.3 0.9s-0.4 0.9-0.5 1.8c-0.2 1.1 0.1 2 0.7 2.8 0.7 0.7 1.6 1.1 2.9 1.2 1 0.1 2.1 0 3.2-0.4 0.1-1 0.1-2 0.2-3s0.2-2 0.3-3.1c-0.4-0.1-0.8-0.3-1.3-0.3-0.5-0.1-0.9-0.1-1.4-0.2h-1.4c-0.5 0-0.9 0.1-1.4 0.3z" fill="#C3D2E0" p-id="10128"></path></svg>