<?xml version="1.0" standalone="no"?><!DOCTYPE svg PUBLIC "-//W3C//DTD SVG 1.1//EN" "http://www.w3.org/Graphics/SVG/1.1/DTD/svg11.dtd"><svg t="1566953623614" class="icon" viewBox="0 0 1024 1024" version="1.1" xmlns="http://www.w3.org/2000/svg" p-id="4530" xmlns:xlink="http://www.w3.org/1999/xlink" width="64" height="64"><defs><style type="text/css"></style></defs><path d="M351.9 253.5L327.6 293l-59.5 32.2-25.8 26.6-156.5-184L198 72.5z" fill="#BF947F" p-id="4531"></path><path d="M242 361.7L76.4 167 198.7 63l161.4 189.8-27.8 45.2-60.1 32.6-30.2 31.1zM95.2 168.6L242.6 342l22.3-22.6 57.9-31.3 20.8-33.8L197.2 81.9l-102 86.7z" fill="#333333" p-id="4532"></path><path d="M250.4 187.7l16.6 19.6" fill="#422200" p-id="4533"></path><path d="M267 213.9c-1.9 0-3.8-0.8-5.1-2.3L245.3 192c-2.4-2.8-2-7 0.8-9.4 2.8-2.4 7-2 9.4 0.8l16.7 19.6c2.4 2.8 2 7-0.8 9.4a7.1 7.1 0 0 1-4.4 1.5zM238.2 180c-1.9 0-3.8-0.8-5.1-2.3l-45.8-53.9-16.9 14.4c-2.8 2.4-7 2-9.4-0.8-2.4-2.8-2-7 0.8-9.4l27.1-23 54.4 64c2.4 2.8 2 7-0.8 9.4-1.2 1.1-2.8 1.6-4.3 1.6z" fill="#333333" p-id="4534"></path><path d="M567 294.8L647.8 66l277.5 98.1-242.5 686.3-416.3-147.1 161.7-457.6 40.6 3.7 54.8 38.2z" fill="#BF947F" p-id="4535"></path><path d="M686.8 858.9L258 707.3l165.6-468.7 47.5 4.3 55 38.4 36.4 6 81.2-229.8L933.8 160l-247 698.9zM275 699.2l403.7 142.7 238.1-673.7-265-93.6-80.5 227.7L521 294l-54.6-38.1-33.7-3L275 699.2z" fill="#333333" p-id="4536"></path><path d="M347.4 474.5l416.2 147.1" fill="#FFFFFF" p-id="4537"></path><path d="M345.086 480.828l4.431-12.54 416.246 147.109-4.431 12.539zM842.3 399.1l-277-97.8L521 294l-54.6-38.1-38.8-3.5 1.2-13.3 42.3 3.8 55 38.4 43.1 7.2 277.5 98.1z" fill="#333333" p-id="4538"></path><path d="M786.6 115.1L544 801.3" fill="#FFFFFF" p-id="4539"></path><path d="M537.776 799.086l242.39-686.337 12.54 4.43-242.39 686.336z" fill="#333333" p-id="4540"></path><path d="M647.8 66L405.3 752.3" fill="#FFFFFF" p-id="4541"></path><path d="M399.046 750.096L641.437 63.759l12.54 4.429-242.39 686.337zM637.6 194.4c-0.7 0-1.5-0.1-2.2-0.4-3.5-1.2-5.3-5-4.1-8.5l8.6-24.2c1.2-3.5 5-5.3 8.5-4.1 3.5 1.2 5.3 5 4.1 8.5l-8.6 24.2c-1 2.8-3.5 4.5-6.3 4.5zM632.8 294.8c-0.7 0-1.5-0.1-2.2-0.4l-33.5-11.9 28-79.3c1.2-3.5 5-5.3 8.5-4.1 3.5 1.2 5.3 5 4.1 8.5l-23.6 66.7 21 7.4c3.5 1.2 5.3 5 4.1 8.5-1.1 2.8-3.6 4.6-6.4 4.6zM775.2 243c-0.7 0-1.5-0.1-2.2-0.4-3.5-1.2-5.3-5-4.1-8.5l8.6-24.2c1.2-3.5 5-5.3 8.5-4.1 3.5 1.2 5.3 5 4.1 8.5l-8.6 24.2c-1 2.8-3.5 4.5-6.3 4.5zM770.4 343.4c-0.7 0-1.5-0.1-2.2-0.4l-33.5-11.9 28-79.3c1.2-3.5 5-5.3 8.5-4.1 3.5 1.2 5.3 5 4.1 8.5L751.7 323l21 7.4c3.5 1.2 5.3 5 4.1 8.5-1.1 2.8-3.6 4.5-6.4 4.5zM555.1 427.9c-0.7 0-1.5-0.1-2.2-0.4-3.5-1.2-5.3-5-4.1-8.5l8.6-24.2c1.2-3.5 5-5.3 8.5-4.1 3.5 1.2 5.3 5 4.1 8.5l-8.6 24.2c-1 2.8-3.5 4.5-6.3 4.5zM550.3 528.3c-0.7 0-1.5-0.1-2.2-0.4L514.5 516l28-79.3c1.2-3.5 5-5.3 8.5-4.1 3.5 1.2 5.3 5 4.1 8.5l-23.6 66.7 21 7.4c3.5 1.2 5.3 5 4.1 8.5-1 2.9-3.6 4.6-6.3 4.6zM411.6 377.2c-0.7 0-1.5-0.1-2.2-0.4-3.5-1.2-5.3-5-4.1-8.5l8.6-24.2c1.2-3.5 5-5.3 8.5-4.1 3.5 1.2 5.3 5 4.1 8.5l-8.6 24.2c-1 2.8-3.5 4.5-6.3 4.5zM406.8 477.6c-0.7 0-1.5-0.1-2.2-0.4l-33.5-11.9 28-79.3c1.2-3.5 5-5.3 8.5-4.1 3.5 1.2 5.3 5 4.1 8.5l-23.6 66.7 21 7.4c3.5 1.2 5.3 5 4.1 8.5-1.1 2.9-3.6 4.6-6.4 4.6zM692.7 476.6c-0.7 0-1.5-0.1-2.2-0.4-3.5-1.2-5.3-5-4.1-8.5l8.6-24.2c1.2-3.5 5-5.3 8.5-4.1 3.5 1.2 5.3 5 4.1 8.5l-8.6 24.2c-1 2.8-3.6 4.5-6.3 4.5zM687.9 576.9c-0.7 0-1.5-0.1-2.2-0.4l-33.5-11.9 28-79.3c1.2-3.5 5-5.3 8.5-4.1 3.5 1.2 5.3 5 4.1 8.5l-23.6 66.7 21 7.4c3.5 1.2 5.3 5 4.1 8.5-1.1 2.9-3.7 4.6-6.4 4.6z" fill="#333333" p-id="4542"></path><path d="M476.7 643.2l8.5-24.2" fill="#FFFFFF" p-id="4543"></path><path d="M470.359 640.97l8.558-24.233 12.54 4.429-8.557 24.232z" fill="#333333" p-id="4544"></path><path d="M470.4 660.9l-25.8 73 27.3 9.6" fill="#FFFFFF" p-id="4545"></path><path d="M469.6 749.8L436.1 738l28-79.3 12.6 4.4-23.6 66.7 21 7.5z" fill="#333333" p-id="4546"></path><path d="M614.3 691.8l8.5-24.2" fill="#FFFFFF" p-id="4547"></path><path d="M607.923 689.59l8.559-24.232 12.54 4.428-8.558 24.233z" fill="#333333" p-id="4548"></path><path d="M608 709.5l-25.8 73 27.3 9.7" fill="#FFFFFF" p-id="4549"></path><path d="M607.2 798.4l-33.5-11.8 28-79.3 12.6 4.5-23.6 66.7 21 7.4z" fill="#333333" p-id="4550"></path><path d="M338.3 596.6l8.6-24.2" fill="#FFFFFF" p-id="4551"></path><path d="M332.09 594.398l8.557-24.233 12.54 4.43-8.557 24.232z" fill="#333333" p-id="4552"></path><path d="M332.1 614.4l-25.8 72.9 27.2 9.7" fill="#FFFFFF" p-id="4553"></path><path d="M331.3 703.3l-33.5-11.9 28-79.3 12.6 4.5-23.6 66.7 21 7.4z" fill="#333333" p-id="4554"></path><path d="M213.3 789.4l30.8-47.3 96.4-272.9 8.6 0.8 461.4 43.7-134.6 381-5.9 56.2" fill="#FDFFD7" p-id="4555"></path><path d="M670 957.5h-0.7c-3.7-0.4-6.3-3.7-5.9-7.3l6.2-57.7 131.8-372.9-456.3-43.3-95 268.8-31.2 48c-2 3.1-6.1 4-9.2 2-3.1-2-4-6.1-2-9.2l30.3-46.7L336 462l483.7 45.9-137.3 388.2-5.7 55.4c-0.4 3.5-3.3 6-6.7 6z" fill="#333333" p-id="4556"></path><path d="M810.5 513.7l-470-44.5 275.1 334" fill="#FDFFD7" p-id="4557"></path><path d="M615.6 809.9c-1.9 0-3.8-0.8-5.1-2.4L325.2 461l485.9 46.1c3.7 0.3 6.4 3.6 6 7.3-0.3 3.7-3.6 6.5-7.3 6l-454-43.1L620.7 799c2.3 2.8 1.9 7-0.9 9.4-1.3 1-2.7 1.5-4.2 1.5z" fill="#333333" p-id="4558"></path><path d="M619.3 811.2c-2.3 0-4.6-1.2-5.8-3.4-1.8-3.2-0.6-7.3 2.6-9l17.1-9.5 0.2-19.6c0-2.4 1.3-4.6 3.4-5.8l17.1-9.4 0.2-19.5c0-2.4 1.3-4.6 3.4-5.8l17.1-9.4 0.2-19.5c0-2.4 1.3-4.6 3.5-5.8l17.1-9.4 0.2-19.5c0-2.4 1.3-4.6 3.4-5.8l17.1-9.4 0.2-19.5c0-2.4 1.3-4.6 3.4-5.8l17.1-9.4 0.2-19.5c0-2.4 1.3-4.6 3.4-5.8l17.1-9.4 0.2-19.5c0-2.4 1.3-4.6 3.4-5.8l17.1-9.4 0.2-19.5c0-2.4 1.3-4.6 3.5-5.8l20.5-11.3c3.2-1.8 7.3-0.6 9 2.6 1.8 3.2 0.6 7.3-2.6 9l-17 9.4-0.2 19.5c0 2.4-1.3 4.6-3.4 5.8l-17.1 9.4-0.2 19.5c0 2.4-1.3 4.6-3.4 5.8l-17.1 9.4-0.2 19.5c0 2.4-1.3 4.6-3.4 5.8l-17.1 9.4-0.2 19.5c0 2.4-1.3 4.6-3.4 5.8l-17.1 9.4-0.2 19.5c0 2.4-1.3 4.6-3.5 5.8l-17.1 9.4-0.2 19.5c0 2.4-1.3 4.6-3.4 5.8l-17.1 9.4-0.2 19.5c0 2.4-1.3 4.6-3.4 5.8l-17.1 9.4-0.2 19.6c0 2.4-1.3 4.6-3.4 5.8l-20.5 11.3c-1.2 0.7-2.3 0.9-3.4 0.9zM670.2 957c-1.5 0-3-0.5-4.3-1.6L648 940.3l-23.4 0.5c-1.5 0-3.2-0.5-4.4-1.6l-17.9-15.1-23.4 0.5c-1.6 0.1-3.2-0.5-4.4-1.6l-17.8-15-23.4 0.5c-1.7 0.1-3.2-0.5-4.4-1.6l-17.8-15-23.4 0.5c-1.6 0.1-3.2-0.5-4.4-1.6l-17.9-15-23.4 0.5c-1.5 0-3.2-0.5-4.4-1.6l-17.9-15.1-23.4 0.5c-1.4 0-3.2-0.5-4.4-1.6L374 843.4l-23.4 0.5c-1.6 0.1-3.2-0.5-4.4-1.6l-17.9-15.1-23.4 0.5c-1.6 0.1-3.2-0.5-4.4-1.6L282.6 811l-23.4 0.5c-1.7 0-3.2-0.5-4.4-1.6L237 795.3l-23.4 0.5h-0.1c-3.6 0-6.6-2.9-6.7-6.5-0.1-3.7 2.8-6.7 6.5-6.8l25.9-0.5c1.5-0.1 3.2 0.5 4.4 1.6l17.9 15.1 23.4-0.5c1.5-0.1 3.2 0.5 4.4 1.6l17.9 15.1 23.4-0.5c1.8 0.1 3.2 0.5 4.4 1.6l17.9 15.1 23.4-0.5c1.6 0 3.2 0.5 4.4 1.6l17.9 15.1 23.4-0.5c1.6 0.1 3.2 0.5 4.4 1.6l17.9 15.1 23.4-0.5c1.7 0.1 3.2 0.5 4.4 1.6l17.9 15 23.4-0.5c1.6 0 3.2 0.5 4.4 1.6l17.8 15 23.4-0.5c1.6 0.1 3.2 0.5 4.4 1.6l17.8 15 23.4-0.5c1.7 0.1 3.2 0.5 4.4 1.6l17.9 15.1 23.4-0.5c1.6 0.1 3.2 0.5 4.4 1.6l19.8 16.7c2.8 2.4 3.2 6.6 0.8 9.4-1.3 1-3.2 1.8-5.1 1.8z" fill="#333333" p-id="4559"></path><path d="M271.9 758.6c-0.7 0-1.5-0.1-2.2-0.4l-3.1-1.1c-3.5-1.2-5.3-5-4.1-8.5 1.2-3.5 5-5.3 8.5-4.1l3.1 1.1c3.5 1.2 5.3 5 4.1 8.5-0.9 2.8-3.5 4.5-6.3 4.5zM632.4 886c-0.7 0-1.5-0.1-2.2-0.4l-6.3-2.2c-3.5-1.2-5.3-5-4.1-8.5 1.2-3.5 5-5.3 8.5-4.1l6.3 2.2c3.5 1.2 5.3 5 4.1 8.5-0.9 2.8-3.5 4.5-6.3 4.5z m-18.9-6.7c-0.7 0-1.5-0.1-2.2-0.4l-6.3-2.2c-3.5-1.2-5.3-5-4.1-8.5 1.2-3.5 5-5.3 8.5-4.1l6.3 2.2c3.5 1.2 5.3 5 4.1 8.5-1 2.8-3.6 4.5-6.3 4.5z m-19-6.7c-0.7 0-1.5-0.1-2.2-0.4L586 870c-3.5-1.2-5.3-5-4.1-8.5 1.2-3.5 5-5.3 8.5-4.1l6.3 2.2c3.5 1.2 5.3 5 4.1 8.5-1 2.8-3.6 4.5-6.3 4.5z m-19-6.7c-0.7 0-1.5-0.1-2.2-0.4l-6.3-2.2c-3.5-1.2-5.3-5-4.1-8.5 1.2-3.5 5-5.3 8.5-4.1l6.3 2.2c3.5 1.2 5.3 5 4.1 8.5-1 2.8-3.5 4.5-6.3 4.5z m-19-6.7c-0.7 0-1.5-0.1-2.2-0.4l-6.3-2.2c-3.5-1.2-5.3-5-4.1-8.5 1.2-3.5 5-5.3 8.5-4.1l6.3 2.2c3.5 1.2 5.3 5 4.1 8.5-0.9 2.8-3.5 4.5-6.3 4.5z m-18.9-6.7c-0.7 0-1.5-0.1-2.2-0.4l-6.3-2.2c-3.5-1.2-5.3-5-4.1-8.5 1.2-3.5 5-5.3 8.5-4.1l6.3 2.2c3.5 1.2 5.3 5 4.1 8.5-1 2.8-3.6 4.5-6.3 4.5z m-19-6.7c-0.7 0-1.5-0.1-2.2-0.4l-6.3-2.2c-3.5-1.2-5.3-5-4.1-8.5 1.2-3.5 5-5.3 8.5-4.1l6.3 2.2c3.5 1.2 5.3 5 4.1 8.5-1 2.8-3.6 4.5-6.3 4.5z m-19-6.7c-0.7 0-1.5-0.1-2.2-0.4l-6.3-2.2c-3.5-1.2-5.3-5-4.1-8.5 1.2-3.5 5-5.3 8.5-4.1l6.3 2.2c3.5 1.2 5.3 5 4.1 8.5-1 2.8-3.5 4.5-6.3 4.5z m-18.9-6.8c-0.7 0-1.5-0.1-2.2-0.4l-6.3-2.2c-3.5-1.2-5.3-5-4.1-8.5 1.2-3.5 5-5.3 8.5-4.1l6.3 2.2c3.5 1.2 5.3 5 4.1 8.5-1 2.8-3.6 4.5-6.3 4.5z m-19-6.7c-0.7 0-1.5-0.1-2.2-0.4l-6.3-2.2c-3.5-1.2-5.3-5-4.1-8.5 1.2-3.5 5-5.3 8.5-4.1l6.3 2.2c3.5 1.2 5.3 5 4.1 8.5-1 2.8-3.6 4.5-6.3 4.5z m-19-6.7c-0.7 0-1.5-0.1-2.2-0.4l-6.3-2.2c-3.5-1.2-5.3-5-4.1-8.5 1.2-3.5 5-5.3 8.5-4.1l6.3 2.2c3.5 1.2 5.3 5 4.1 8.5-1 2.8-3.5 4.5-6.3 4.5z m-19-6.7c-0.7 0-1.5-0.1-2.2-0.4l-6.3-2.2c-3.5-1.2-5.3-5-4.1-8.5 1.2-3.5 5-5.3 8.5-4.1l6.3 2.2c3.5 1.2 5.3 5 4.1 8.5-0.9 2.8-3.5 4.5-6.3 4.5z m-18.9-6.7c-0.7 0-1.5-0.1-2.2-0.4l-6.3-2.2c-3.5-1.2-5.3-5-4.1-8.5 1.2-3.5 5-5.3 8.5-4.1l6.3 2.2c3.5 1.2 5.3 5 4.1 8.5-1 2.8-3.6 4.5-6.3 4.5z m-19-6.7c-0.7 0-1.5-0.1-2.2-0.4l-6.3-2.2c-3.5-1.2-5.3-5-4.1-8.5 1.2-3.5 5-5.3 8.5-4.1l6.3 2.2c3.5 1.2 5.3 5 4.1 8.5-1 2.8-3.6 4.5-6.3 4.5z m-19-6.7c-0.7 0-1.5-0.1-2.2-0.4l-6.3-2.2c-3.5-1.2-5.3-5-4.1-8.5 1.2-3.5 5-5.3 8.5-4.1l6.3 2.2c3.5 1.2 5.3 5 4.1 8.5-1 2.8-3.5 4.5-6.3 4.5z m-19-6.7c-0.7 0-1.5-0.1-2.2-0.4l-6.3-2.2c-3.5-1.2-5.3-5-4.1-8.5 1.2-3.5 5-5.3 8.5-4.1l6.3 2.2c3.5 1.2 5.3 5 4.1 8.5-1 2.8-3.5 4.5-6.3 4.5z m-18.9-6.7c-0.7 0-1.5-0.1-2.2-0.4l-6.3-2.2c-3.5-1.2-5.3-5-4.1-8.5 1.2-3.5 5-5.3 8.5-4.1l6.3 2.2c3.5 1.2 5.3 5 4.1 8.5-1 2.8-3.6 4.5-6.3 4.5z m-19-6.7c-0.7 0-1.5-0.1-2.2-0.4l-6.3-2.2c-3.5-1.2-5.3-5-4.1-8.5 1.2-3.5 5-5.3 8.5-4.1l6.3 2.2c3.5 1.2 5.3 5 4.1 8.5-1 2.8-3.6 4.5-6.3 4.5z m-19-6.7c-0.7 0-1.5-0.1-2.2-0.4l-6.3-2.2c-3.5-1.2-5.3-5-4.1-8.5 1.2-3.5 5-5.3 8.5-4.1l6.3 2.2c3.5 1.2 5.3 5 4.1 8.5-1 2.8-3.5 4.5-6.3 4.5zM648.2 891.6c-0.7 0-1.5-0.1-2.2-0.4l-3.1-1.1c-3.5-1.2-5.3-5-4.1-8.5 1.2-3.5 5-5.3 8.5-4.1l3.1 1.1c3.5 1.2 5.3 5 4.1 8.5-0.9 2.8-3.5 4.5-6.3 4.5z" fill="#333333" p-id="4560"></path><path d="M59.2 420.2c-1.9 0-3.8-0.8-5.1-2.4l-7.2-8.8c-2.3-2.8-1.9-7 0.9-9.4 2.8-2.3 7-1.9 9.4 0.9l7.2 8.8c2.3 2.8 1.9 7-0.9 9.4-1.4 1-2.9 1.5-4.3 1.5zM266.5 430.5c-3.7 0-6.7-3-6.7-6.7v-20a6.7 6.7 0 0 1 13.4 0v20c0 3.7-3 6.7-6.7 6.7zM97.7 597.2c-0.8 0-1.6-0.1-2.4-0.4-3.4-1.3-5.2-5.2-3.9-8.6l4.6-12.1c1.3-3.4 5.2-5.2 8.6-3.9 3.4 1.3 5.2 5.2 3.9 8.6l-4.6 12.1c-1 2.7-3.5 4.3-6.2 4.3zM202.2 522.3c-3.7 0-6.7-3-6.7-6.7v-18.8a6.7 6.7 0 0 1 13.4 0v18.8c0 3.7-3 6.7-6.7 6.7zM888.2 891.9c-0.6 0-1.2-0.1-1.8-0.3l-17.7-5c-3.5-1-5.6-4.7-4.6-8.2 1-3.5 4.7-5.6 8.2-4.6l17.7 5c3.5 1 5.6 4.7 4.6 8.2-0.8 3-3.5 4.9-6.4 4.9zM879.4 703.6c-0.8 0-1.6-0.1-2.3-0.4l-13.9-5.1c-3.5-1.3-5.2-5.1-3.9-8.6 1.3-3.5 5.1-5.2 8.6-3.9l13.9 5.1c3.5 1.3 5.2 5.1 3.9 8.6-1 2.7-3.6 4.3-6.3 4.3zM775.2 857c-3.2 0-6.1-2.4-6.6-5.7l-3.2-21.3c-0.5-3.6 2-7 5.6-7.6 3.6-0.5 7 2 7.6 5.6l3.2 21.3c0.5 3.6-2 7-5.6 7.6-0.3 0.1-0.7 0.1-1 0.1zM117.9 872.1c-0.7 0-1.5-0.1-2.2-0.4-3.5-1.2-5.3-5-4.1-8.5l7.7-21.7c1.2-3.5 5-5.3 8.5-4.1 3.5 1.2 5.3 5 4.1 8.5l-7.7 21.7c-1 2.8-3.6 4.5-6.3 4.5zM190 708.9h-18a6.7 6.7 0 0 1 0-13.4h18a6.7 6.7 0 0 1 0 13.4z" fill="#333333" p-id="4561"></path></svg>