<?xml version="1.0" standalone="no"?><!DOCTYPE svg PUBLIC "-//W3C//DTD SVG 1.1//EN" "http://www.w3.org/Graphics/SVG/1.1/DTD/svg11.dtd"><svg t="1566953773317" class="icon" viewBox="0 0 1024 1024" version="1.1" xmlns="http://www.w3.org/2000/svg" p-id="6468" xmlns:xlink="http://www.w3.org/1999/xlink" width="64" height="64"><defs><style type="text/css"></style></defs><path d="M223.6 326h388v615.2h-388z" fill="#93D1E9" p-id="6469"></path><path d="M611.6 958.6h-388c-9.6 0-17.4-7.8-17.4-17.4V326c0-9.6 7.8-17.4 17.4-17.4h388c9.6 0 17.4 7.8 17.4 17.4v615.2c0 9.6-7.8 17.4-17.4 17.4zM241 923.8h353.2V343.4H241v580.4z" fill="#3D2C1F" p-id="6470"></path><path d="M327.1 81.3h385.6v98.4H327.1z" fill="#FFFFFF" p-id="6471"></path><path d="M712.7 197.1H327.1c-9.6 0-17.4-7.8-17.4-17.4V81.3c0-9.6 7.8-17.4 17.4-17.4h385.6c9.6 0 17.4 7.8 17.4 17.4v98.4c0.1 9.6-7.7 17.4-17.4 17.4z m-368.2-34.8h350.8V98.7H344.5v63.6z" fill="#3D2C1F" p-id="6472"></path><path d="M611.6 326h194v615.2h-194z" fill="#6BAED4" p-id="6473"></path><path d="M805.6 958.6h-194c-9.6 0-17.4-7.8-17.4-17.4V326c0-9.6 7.8-17.4 17.4-17.4h194c9.6 0 17.4 7.8 17.4 17.4v615.2c0 9.6-7.8 17.4-17.4 17.4zM629 923.8h159.2V343.4H629v580.4z" fill="#3D2C1F" p-id="6474"></path><path d="M612.6 326h-389l100.1-146.3h389z" fill="#93D1E9" p-id="6475"></path><path d="M612.6 343.4h-389c-6.5 0-12.4-3.6-15.4-9.3-3-5.7-2.6-12.6 1-18l100.1-146.3c3.2-4.7 8.6-7.6 14.4-7.6h389c6.5 0 12.4 3.6 15.4 9.3 3 5.7 2.6 12.6-1 18L627 335.8c-3.3 4.8-8.6 7.6-14.4 7.6z m-356-34.8h346.8l76.3-111.4H332.9l-76.3 111.4z" fill="#3D2C1F" p-id="6476"></path><path d="M805.6 326h-194l102.1-146.3z" fill="#6BAED4" p-id="6477"></path><path d="M805.6 343.4h-194c-6.5 0-12.4-3.6-15.4-9.4-3-5.8-2.6-12.7 1.2-18l102.1-146.3c3.3-4.8 8.5-7.7 14.7-7.4 5.8 0.1 11.2 3.2 14.3 8.1l91.9 146.3c3.4 5.4 3.6 12.1 0.5 17.7s-8.9 9-15.3 9zM645 308.6h129.1l-61.2-97.4-67.9 97.4z" fill="#3D2C1F" p-id="6478"></path><path d="M223.6 495.5h388v296h-388z" fill="#FFFFFF" p-id="6479"></path><path d="M611.6 805.4h-388c-7.7 0-13.9-6.2-13.9-13.9v-296c0-7.7 6.2-13.9 13.9-13.9h388c7.7 0 13.9 6.2 13.9 13.9v296c0 7.6-6.2 13.9-13.9 13.9z m-374.1-27.9h360.1V509.4H237.5v268.1z" fill="#3D2C1F" p-id="6480"></path><path d="M263.7 580.4h26.4l20.3 55.7c2.6 7.4 4.8 15.3 7.3 23h0.8c2.6-7.7 4.7-15.6 7.3-23l19.8-55.7H372v119.2h-21.8v-49.8c0-11.3 1.8-27.9 2.9-39.2h-0.6l-9.7 28-18.4 50.1h-13.7l-18.5-50.1-9.5-28h-0.6c1.1 11.3 3.1 27.9 3.1 39.2v49.8h-21.4V580.4zM397.2 582c0-7.7 6-12.9 14.2-12.9 8.1 0 14 5.2 14 12.9 0 7.4-6 12.9-14 12.9-8.2 0-14.2-5.5-14.2-12.9z m2.3 27.4H423v90.2h-23.5v-90.2zM448.5 674.4V571.1H472v104.4c0 5.3 2.6 7.1 4.8 7.1 1 0 1.6 0 3.2-0.3l2.9 17.6c-2.7 1.1-6.8 2.1-12.2 2.1-16.4-0.1-22.2-10.9-22.2-27.6zM499.3 571.1h23v77.3h0.6l31.3-39H580l-31.3 36.9 34.2 53.3h-25.6l-21.9-37.4-13 14.8v22.6h-23V571.1z" fill="#3D2C1F" p-id="6481"></path></svg>