<?xml version="1.0" standalone="no"?><!DOCTYPE svg PUBLIC "-//W3C//DTD SVG 1.1//EN" "http://www.w3.org/Graphics/SVG/1.1/DTD/svg11.dtd"><svg t="1566957430698" class="icon" viewBox="0 0 1024 1024" version="1.1" xmlns="http://www.w3.org/2000/svg" p-id="1062" xmlns:xlink="http://www.w3.org/1999/xlink" width="64" height="64"><defs><style type="text/css"></style></defs><path d="M233.90856933 172.11047387h185.39428712c33.9889524 0 61.79809547 27.80914307 61.79809546 61.79809547v185.39428711c0 33.9889524-27.80914307 61.79809547-61.79809547 61.79809546H233.90856933c-33.9889524 0-61.79809547-27.80914307-61.79809546-61.79809546V233.90856933c0-33.9889524 27.80914307-61.79809547 61.79809547-61.79809546z" fill="#3399FF" p-id="1063"></path><path d="M419.30285644 496.55047632H233.90856933c-43.25866675 0-77.24761987-33.9889524-77.24761986-77.24761987V233.90856933c0-43.25866675 33.9889524-77.24761987 77.24761987-77.24761986h185.3942871c43.25866675 0 77.24761987 33.9889524 77.24761988 77.24761987v185.3942871c0 43.25866675-33.9889524 77.24761987-77.24761987 77.24761988zM233.90856933 187.55999756C207.64437842 187.55999756 187.55999756 207.64437842 187.55999756 233.90856933v185.39428712c0 26.26419091 20.08438087 46.34857177 46.34857177 46.34857178h185.39428711c26.26419091 0 46.34857177-20.08438087 46.34857179-46.34857179V233.90856933c0-26.26419091-20.08438087-46.34857177-46.34857179-46.34857177H233.90856933z" p-id="1064"></path><path d="M604.69714356 172.11047387h185.3942871c33.9889524 0 61.79809547 27.80914307 61.79809547 61.79809547v185.39428711c0 33.9889524-27.80914307 61.79809547-61.79809546 61.79809546H604.69714356c-33.9889524 0-61.79809547-27.80914307-61.79809547-61.79809546V233.90856933c0-33.9889524 27.80914307-61.79809547 61.79809546-61.79809546z" fill="#FFFFFF" p-id="1065"></path><path d="M790.09143067 496.55047632H604.69714356c-43.25866675 0-77.24761987-33.9889524-77.24761988-77.24761987V233.90856933c0-43.25866675 33.9889524-77.24761987 77.24761987-77.24761986h185.39428712c43.25866675 0 77.24761987 33.9889524 77.24761986 77.24761987v185.3942871c0 43.25866675-33.9889524 77.24761987-77.24761987 77.24761988zM604.69714356 187.55999756c-26.26419091 0-46.34857177 20.08438087-46.34857178 46.34857177v185.39428711c0 26.26419091 20.08438087 46.34857177 46.34857177 46.34857179h185.39428712c26.26419091 0 46.34857177-20.08438087 46.34857177-46.34857179V233.90856933c0-26.26419091-20.08438087-46.34857177-46.34857178-46.34857177H604.69714356z" p-id="1066"></path><path d="M233.90856933 542.89904809h185.39428712c33.9889524 0 61.79809547 27.80914307 61.79809546 61.79809546v185.39428712c0 33.9889524-27.80914307 61.79809547-61.79809547 61.79809546H233.90856933c-33.9889524 0-61.79809547-27.80914307-61.79809546-61.79809547V604.69714356c0-33.9889524 27.80914307-61.79809547 61.79809547-61.79809547z" fill="#FFFFFF" p-id="1067"></path><path d="M419.30285644 867.33905053H233.90856933c-43.25866675 0-77.24761987-33.9889524-77.24761986-77.24761987V604.69714356c0-43.25866675 33.9889524-77.24761987 77.24761987-77.24761988h185.3942871c43.25866675 0 77.24761987 33.9889524 77.24761988 77.24761987v185.39428712c0 43.25866675-33.9889524 77.24761987-77.24761987 77.24761986zM233.90856933 558.34857177c-26.26419091 0-46.34857177 20.08438087-46.34857177 46.34857179v185.3942871c0 26.26419091 20.08438087 46.34857177 46.34857178 46.34857178h185.3942871c26.26419091 0 46.34857177-20.08438087 46.34857179-46.34857177V604.69714356c0-26.26419091-20.08438087-46.34857177-46.34857178-46.34857178H233.90856933z" p-id="1068"></path><path d="M604.69714356 542.89904809h185.3942871c33.9889524 0 61.79809547 27.80914307 61.79809547 61.79809546v185.39428712c0 33.9889524-27.80914307 61.79809547-61.79809546 61.79809546H604.69714356c-33.9889524 0-61.79809547-27.80914307-61.79809547-61.79809547V604.69714356c0-33.9889524 27.80914307-61.79809547 61.79809546-61.79809547z" fill="#FFBF80" p-id="1069"></path><path d="M790.09143067 867.33905053H604.69714356c-43.25866675 0-77.24761987-33.9889524-77.24761988-77.24761987V604.69714356c0-43.25866675 33.9889524-77.24761987 77.24761987-77.24761988h185.39428712c43.25866675 0 77.24761987 33.9889524 77.24761986 77.24761987v185.39428712c0 43.25866675-33.9889524 77.24761987-77.24761987 77.24761986zM604.69714356 558.34857177c-26.26419091 0-46.34857177 20.08438087-46.34857178 46.34857179v185.3942871c0 26.26419091 20.08438087 46.34857177 46.34857177 46.34857178h185.39428712c26.26419091 0 46.34857177-20.08438087 46.34857177-46.34857177V604.69714356c0-26.26419091-20.08438087-46.34857177-46.34857178-46.34857178H604.69714356z" p-id="1070"></path></svg>