<?xml version="1.0" standalone="no"?><!DOCTYPE svg PUBLIC "-//W3C//DTD SVG 1.1//EN" "http://www.w3.org/Graphics/SVG/1.1/DTD/svg11.dtd"><svg t="1566898745411" class="icon" viewBox="0 0 1024 1024" version="1.1" xmlns="http://www.w3.org/2000/svg" p-id="9821" xmlns:xlink="http://www.w3.org/1999/xlink" width="64" height="64"><defs><style type="text/css"></style></defs><path d="M303.23215479 815.71053096a254.53627383 146.28946904 0 1 0 509.07254677 0 254.53627383 146.28946904 0 1 0-509.07254677 0Z" fill="#7357FF" p-id="9822"></path><path d="M812.30470156 815.71053096H303.19102724L189.35092286 455.31283028h736.7938831l-113.8401044 360.39770068z" fill="#7357FF" p-id="9823"></path><path d="M458.36397266 950.36100049a419.49749443 419.49749443 0 0 0 99.40445507 11.59787197c140.57278769 0 254.53627383-65.51563799 254.53627383-146.28946904l113.88123193-360.43882735H418.59396494z" fill="#543F99" p-id="9824"></path><path d="M189.35092286 455.27170362a368.41750489 211.72285283 0 1 0 736.83501063 0 368.41750489 211.72285283 0 1 0-736.83501064 0Z" fill="#FF9700" p-id="9825"></path><path d="M227.10569698 455.27170362a330.66273076 184.33213417 0 1 0 661.32546151 0 330.66273076 184.33213417 0 1 0-661.32546151 0Z" fill="#543F99" p-id="9826"></path><path d="M785.6954 599.05241299c-28.33664414-52.1492959-80.52706758-107.38313261-136.62457646-153.19883935-93.11199258-76.00307519-217.19277158-127.49433662-285.50505938-103.72281241-18.38386055 6.3747167-45.73345254 33.68318115-51.3678788 51.36787969-21.0571295 65.80352812 5.30540948 147.35877627 64.52858495 225.00694072a560.5638082 560.5638082 0 0 0 180.95970323 28.78904356c87.51869297-0.12338174 167.30547099-18.30160635 228.00922646-48.24221221z" fill="#FF9700" p-id="9827"></path><path d="M809.30241582 586.13847031c-13.69535977-62.51335224-60.37473779-134.1158168-131.60705713-192.31081172-118.0350791-96.44329688-258.73124854-119.59791328-314.12959453-51.69689736S358.91839003 543.20166846 477.03572422 639.64496445l3.33130341 2.63214141a606.13275146 606.13275146 0 0 0 77.4014001 4.8941376c99.36332842 0 188.85612656-23.48363408 251.53398809-61.03277315z" fill="#FFD400" p-id="9828"></path><path d="M226.57104336 550.02878457s267.90261504-211.59947109 351.34971504-288.87749033c132.67636435-122.97034424 33.51867276-250.21791739-295.58122471-178.24530762-518.40842256 113.38770498 252.85005791 203.94981123-55.76849033 467.12279796z" fill="#7357FF" p-id="9829"></path><path d="M226.57104336 550.02878457s267.90261504-211.59947109 351.34971504-288.87749033c132.67636435-122.97034424 33.51867276-250.21791739-295.58122471-178.24530762-518.40842256 113.38770498 252.85005791 203.94981123-55.76849033 467.12279796z" fill="#543F99" p-id="9830"></path><path d="M242.93967119 537.03258769s235.12423271-183.9208623 314.82875654-257.70306884C684.56360234 161.91134844 633.93601221 38.98213174 317.8323125 99.02785097c-504.95982715 95.66187979 239.93611612 163.02824209-74.89264131 438.00473672z" fill="#7357FF" p-id="9831"></path><path d="M272.05773242 348.21758779c-37.01448457 30.55751367-62.47222471 67.44861651-62.47222471 106.93073408 0 20.97487441 7.44402393 75.87969346 18.58949737 94.59257256 3.82483037 6.4569709 21.46840136-9.13023984 15.87510088-15.83397422C321.45150605 459.50780586 311.25195987 399.2564498 272.05773242 348.21758779z" fill="#FF9700" p-id="9832"></path><path d="M317.8323125 99.02785097c-278.39005313 52.80733125-176.84698271 96.97795049-82.54230117 172.07622686L557.76842773 95.7376751C508.49803584 79.41017393 429.86281924 77.68283135 317.8323125 99.02785097z" fill="#9283FF" p-id="9833"></path><path d="M816.95207568 683.03416661c-60.00459258 44.45850849-153.73349385 73.08304365-259.10139287 73.08304365-13.9009957 0-27.59635459-0.53465362-41.12720596-1.52170664l7.23838799 138.55755497c11.10434502 0.78141709 22.33207266 1.23381651 33.80656289 1.23381563 132.47072842 0 243.02065606-53.79438427 269.25981329-125.43797549l2.83777734-8.96573144 47.13177744-149.25062813c-10.89870908 27.06170097-31.66794844 51.45013388-60.04572012 72.30162744z" fill="#FF9700" p-id="9834"></path><path d="M726.505042 458.08083916a59.34655722 34.09445303 60 1 0 59.05332509-34.09445302 59.34655722 34.09445303 60 1 0-59.0533251 34.09445302Z" fill="#FF9700" p-id="9835"></path><path d="M726.38996943 389.63268388l59.30543057 102.81801359-176.43571084 101.33743359-59.34655723-102.81801358 176.4768375-101.3374336z" fill="#FF9700" p-id="9836"></path><path d="M550.05890117 559.41225136a59.34655722 34.09445303 60 1 0 59.05332597-34.09445302 59.34655722 34.09445303 60 1 0-59.05332597 34.09445302Z" fill="#FF6D00" p-id="9837"></path><path d="M557.76842773 846.06240781c-12.33816153 0-24.42955957-0.49352607-36.35644921-1.31606982l2.54988632 48.571229c11.10434502 0.78141709 22.33207266 1.23381651 33.80656289 1.2338165 132.47072842 0 243.02065606-53.79438427 269.25981329-125.43797636l2.83777734-8.96573057 13.20183281-41.78524043c-32.16147451 73.37093467-147.68779394 127.69997256-285.29942344 127.69997168z" fill="#FFD400" p-id="9838"></path></svg>