<?xml version="1.0" standalone="no"?><!DOCTYPE svg PUBLIC "-//W3C//DTD SVG 1.1//EN" "http://www.w3.org/Graphics/SVG/1.1/DTD/svg11.dtd"><svg t="1566954472259" class="icon" viewBox="0 0 1024 1024" version="1.1" xmlns="http://www.w3.org/2000/svg" p-id="1166" xmlns:xlink="http://www.w3.org/1999/xlink" width="64" height="64"><defs><style type="text/css"></style></defs><path d="M874.30163575 748.56311036s-16.72668458-10.1348877-14.00756837-1.23596192c3.54309083 11.618042-18.62182617 16.72668458-30.07507324 24.22485351-11.04125977 7.16857911-23.73046875 9.80529786-36.17248536 17.38586426-16.23229981 9.88769531-16.80908203 13.01879883-28.92150878 22.24731445-6.09741211 4.61425781-16.31469727 1.23596192-24.06005859 5.60302734-11.12365723 6.3446045-19.03381348 19.77539063-19.03381349 19.77539063-3.95507813 2.30712891-8.98132325 0.90637207-11.20605468-2.9663086l-18.95141602-32.8765869 70.36743165-262.60070802 115.10925293 199.31945802c2.30712891 3.87268067 0.90637207 8.89892578-3.04870605 11.12365723zM229.54150391 391.69970703L144.7545166 244.86743164c-2.30712891-3.95507813-0.90637207-8.98132325 3.04870606-11.20605469 0 0 5.85021973 1.31835938 10.546875-3.7902832 5.02624512-5.35583497 12.0300293-1.89514161 15.4083252-7.58056641 4.36706543-7.33337403 11.70043945-10.38208008 19.11621093-14.50195312 4.20227051-2.30712891 7.00378418-2.22473145 11.45324707-4.77905274 7.99255372-4.53186036 15.65551758-11.37084961 23.81286622-15.73791504 7.16857911-3.87268067 13.84277344-1.56555176 20.59936523-5.52062988 4.69665528-2.71911622 7.41577148-10.79406739 11.78283691-13.26599121 4.44946289-2.55432129 9.80529786 2.71911622 13.67797851 0.49438477 4.28466797-2.47192383 7.16857911-12.52441406 10.62927247-14.50195313 3.95507813-2.22473145 7.16857911-4.11987305 9.72290039-5.60302734L229.54150391 391.69970703z" fill="#FDA446" p-id="1167"></path><path d="M874.71362305 748.97509766s-60.31494141-98.05297852-117.4987793-190.42053223l2.63671875-9.97009277C823.46240234 653.39404297 877.76232911 737.76904297 877.76232911 737.76904297c2.30712891 3.95507813 0.90637207 8.98132325-3.04870606 11.20605469zM279.22717285 208.28295898c-12.44201661-23.15368653-20.10498047-38.23242188-19.03381347-38.8092041 4.53186036-2.63671875 15.16113281 7.00378418 19.1986084 4.69665528 3.7902832-2.22473145 0.90637207-16.31469727 4.03747558-18.12744141 1.071167-0.65917969 2.14233398-1.23596192 3.13110352-1.81274414 1.64794922-0.90637207 4.20227051-0.16479492 6.92138671 1.07116699l-14.25476073 52.98156738z m-22.16491699 82.47985841c-2.88391114-4.53186036-4.44946289-6.83898926-4.44946289-6.50939942 0.41198731 3.54309083 1.31835938 7.82775879 2.80151367 12.68920898l-15.49072266 57.84301758c-30.1574707-48.86169434-78.85437012-127.55126953-75.97045898-128.4576416 3.95507813-1.23596192 19.52819825 15.73791504 23.97766114 13.18359375 2.47192383-1.4831543-11.78283692-21.58813477-8.98132325-23.15368652 1.15356445-0.65917969 19.6105957 17.3034668 20.84655762 16.56188965 1.81274414-1.071167-13.59558106-20.76416016-11.70043946-21.91772461 1.97753906-1.15356445 25.54321289 25.62561036 27.68554688 24.38964844 1.97753906-1.15356445-17.55065918-30.23986817-15.49072266-31.39343262 1.15356445-0.65917969 17.71545411 19.03381348 20.10498048 20.02258301 2.47192383 0.98876953-11.94763184-20.18737793-10.71166993-20.92895509 1.56555176-0.90637207 1.15356445-5.10864258 2.80151368-6.0974121 3.3782959-1.97753906 26.61437989 19.69299317 30.07507323 17.63305663 3.29589844-1.89514161-13.10119629-27.4383545-9.80529785-29.33349608 1.23596192-0.74157715 16.47949219 22.00012208 37.90283204 55.12390136l-13.59558106 50.34484863z m-23.73046875 88.74206542c-50.01525879-78.60717773-88.1652832-134.22546387-88.1652832-134.22546387-2.30712891-3.95507813-0.90637207-8.98132325 3.04870606-11.20605468 0 0 56.60705567 79.43115234 90.39001464 125.98571777l-5.2734375 19.44580078z m469.25354004 383.23059083c17.38586426 33.61816406 34.19494629 65.91796875 32.4645996 66.90673827-7.82775879 4.53186036-12.60681153 7.25097656-12.60681152 7.25097656-3.95507813 2.30712891-8.98132325 0.90637207-11.20605468-2.96630859 0 0-6.50939942-13.76037598-17.88024903-36.83166504l9.22851562-34.35974121z m15.16113281-56.60705567c28.50952148 42.51708984 65.83557129 90.30761719 68.22509766 88.90686036 2.96630859-1.73034668-16.80908203-40.37475586-44.0826416-86.27014161-3.13110352-5.35583497-9.14611817-15.16113281-17.22106934-28.42712403l21.83532715-81.32629394c1.40075684 1.40075684 2.30712891 1.97753906 2.80151367 1.73034668 0.65917969-0.41198731 0.16479492-2.80151367-1.40075683-6.7565918l5.19104003-19.52819824c52.734375 90.88439942 107.11669922 183.00476075 104.97436524 184.24072266-5.60302734 3.21350098-12.35961914 7.16857911-19.85778809 11.45324707-2.38952637 1.31835938-81.16149903-122.03063965-83.63342285-120.62988282-2.88391114 1.64794922 70.44982911 128.21044922 67.40112305 130.02319337-19.11621094 11.04125977-40.45715333 23.40087891-58.41979981 33.70056152-3.21350098 1.81274414-30.40466309-36.9140625-55.12390137-71.85058594l9.3109131-35.26611328z" fill="#FFB261" p-id="1168"></path><path d="M241.40673828 349.34741211c-31.31103516-74.15771484-19.6105957-70.28503418-29.41589356-80.5847168-10.46447754-10.95886231-8.6517334-47.70812989 16.64428712-7.82775879 9.22851563 14.58435059 16.8914795 30.1574707 24.22485351 45.81298829l-11.45324707 42.5994873zM719.64160156 698.87744141c7.08618164 16.8914795 8.98132325 30.98144531 6.92138672 33.78295898-0.98876953 1.31835938-7.00378418-3.70788575-13.51318359-9.22851562l6.59179687-24.55444336z" fill="#F7952E" p-id="1169"></path><path d="M331.87915039 159.99804687s4.69665528 19.03381348 9.0637207 10.79406739c5.76782227-10.79406739 25.04882813 1.31835938 38.47961427 4.11987304 12.93640137 2.71911622 23.81286622 9.88769531 37.98522948 13.34838868 18.53942872 4.53186036 21.09375 2.71911622 36.25488282 4.77905273 7.66296387 1.071167 12.44201661 10.71166992 21.01135254 13.10119629 12.35961914 3.3782959 27.52075195-0.49438477 27.52075194-0.49438477 4.36706543 1.15356445 7.00378418 5.68542481 5.85021973 10.05249024L331.46716308 874.71362305c-1.15356445 4.36706543-5.68542481 7.00378418-10.05249022 5.85021973 0 0-3.21350098-5.02624512-10.1348877-4.77905275-7.41577148 0.24719239-9.80529786-7.16857911-16.31469727-5.60302734-8.32214356 2.05993653-15.65551758-0.90637207-23.81286621-3.29589844-4.61425781-1.31835938-6.59179688-3.3782959-11.53564453-4.77905273-8.81652833-2.47192383-19.11621094-3.04870606-28.09753418-5.76782227-7.82775879-2.30712891-10.95886231-8.6517334-18.53942871-10.71166991-5.2734375-1.40075684-12.93640137 2.38952637-17.79785156 1.07116699-4.94384766-1.31835938-4.94384766-8.89892578-9.39331055-10.05249024-4.8614502-1.31835938-14.00756836 3.7902832-17.88024903 2.80151368-10.46447754-2.80151367-16.8914795-4.53186036-16.89147948-4.53186036-4.36706543-1.15356445-7.00378418-5.68542481-5.85021973-10.05249023L321.74426269 165.76586914c1.23596192-4.36706543 5.76782227-7.00378418 10.1348877-5.76782227z" fill="#FFB261" p-id="1170"></path><path d="M508.04492187 215.69873047S451.27307128 375.22021484 408.4263916 535.15368653c-45.40100098 169.32678223-76.95922852 339.55993653-76.95922851 339.55993652-1.15356445 4.36706543-5.68542481 7.00378418-10.05249023 5.85021973 0 0 31.55822754-187.61901856 31.06384276-194.04602051-0.24719239-3.29589844-43.91784668 190.42053223-47.8729248 188.3605957-3.70788575-1.97753906-2.71911622-24.96643067-7.66296387-26.28479004-2.80151367-0.74157715-6.92138672 23.64807129-10.05249023 22.82409668-1.31835938-0.32958984-1.64794922-26.20239258-2.9663086-26.53198242-2.05993653-0.57678223-5.10864258 24.38964844-7.25097656 23.81286621-2.22473145-0.57678223 0-36.25488281-2.3071289-36.91406251-2.22473145-0.57678223-8.98132325 33.86535645-11.28845215 33.28857422-1.31835938-0.32958984 0.90637207-26.03759766-0.08239746-28.42712402-0.98876953-2.47192383-5.85021973 22.82409668-7.25097657 22.41210938-1.81274414-0.49438477-4.44946289 2.80151367-6.26220703 2.30712891-3.7902832-0.98876953-4.94384766-32.79418945-8.81652831-33.86535645-3.70788575-0.98876953-10.1348877 28.75671387-13.84277344 27.76794434-4.94384766-1.31835938 75.55847168-340.96069336 70.77941894-342.19665528-5.52062989-1.4831543-96.32263184 335.35766602-101.43127441 334.03930665-5.02624512-1.31835938-5.76782227-15.73791504-10.29968262-16.97387696-4.20227051-1.15356445-12.19482422 10.95886231-15.73791503 9.97009277-1.23596192-0.32958984-2.38952637-0.65917969-3.46069336-0.90637207-4.61425781-1.23596192-5.76782227-14.83154297-8.48693849-15.49072266-2.88391114-0.74157715-7.16857911 11.37084961-7.16857909 11.37084961-4.36706543-1.15356445-7.00378418-5.68542481-5.85021973-10.05249023 0 0 48.44970703-145.7611084 90.96679687-304.45861816 45.64819336-170.56274414 85.61096192-354.8034668 85.61096192-354.8034668 1.15356445-4.36706543 5.68542481-7.00378418 10.05249023-5.85021973 0 0-97.06420898 406.79626465-93.85070801 403.33557129 13.18359375-14.25476075 108.02307129-399.54528809 112.63732911-398.30932617 6.26220703 1.64794922 13.84277344 3.70788575 22.16491699 5.93261719 2.63671875 0.74157715-29.00390625 144.11315918-26.20239258 144.85473633 3.29589844 0.90637207 40.95153809-140.8996582 44.41223145-139.99328614 21.42333984 5.76782227 45.23620606 12.11242676 65.34118652 17.55065918 6.50939942 1.73034668-26.20239258 156.3079834-20.68176269 157.70874024 5.10864258 1.40075684 48.5321045-150.29296875 52.40478515-149.22180176 8.73413086 2.30712891 14.08996583 3.7902832 14.08996582 3.79028321 4.44946289 1.23596192 7.08618164 5.76782227 5.93261719 10.13488769zM231.60144043 581.87304688c-3.29589844-0.82397461-16.64428711 40.45715333-29.82788086 92.28515624-13.18359375 51.82800293-35.51330567 150.37536622-32.21740723 151.19934083s31.06384278-96.32263184 44.24743653-148.15063478c13.10119629-51.82800293 21.09375-94.5098877 17.79785156-95.3338623z m84.21020508-227.74658204c-3.29589844-0.82397461-16.72668458 40.53955078-29.82788086 92.44995118-13.18359375 51.91040039-70.12023926 277.10266114-66.82434082 278.0090332 3.29589844 0.82397461 65.67077637-222.9675293 78.85437012-274.87792969s21.09375-94.75708008 17.79785156-95.58105469z m111.64855957-163.80615234c-3.29589844-0.82397461-16.72668458 40.53955078-29.91027832 92.44995117-13.18359375 51.91040039-117.00439453 490.75927734-114.86206054 488.1225586 40.04516602-49.43847656 109.83581543-385.20812989 123.01940917-437.11853028s25.04882813-142.63000489 21.75292969-143.45397949z" fill="#FDA446" p-id="1171"></path><path d="M433.64001464 369.36999511c-1.15356445 25.04882813-7.74536133 55.78308106-7.41577147 58.99658204 5.93261719 60.23254395-19.94018555-11.53564453-28.26232911-58.17260742-8.23974609-46.63696289 20.35217286-92.53234864 27.4383545-93.60351563 3.54309083-0.49438477 2.71911622 34.85412598 6.26220703 36.9140625 7.49816895 4.36706543 3.13110352 30.89904786 1.97753906 55.86547851z m-79.26635741 72.83935548c13.26599122 31.47583008-6.7565918 61.55090333-14.50195312 120.87707519 0.08239747-0.82397461-15.16113281-73.58093262-28.17993164-35.26611328-18.78662109 55.45349122-46.22497559 201.54418945-50.59204102 191.49169922-6.83898926-15.49072266 40.53955078-247.68676758 40.20996094-265.1550293-0.74157715-36.58447266 53.64074708-86.92932129 62.45727539-60.89172364 8.73413086 26.03759766-22.5769043 17.55065918-9.39331055 48.94409181z m-30.81665039 226.59301757c5.93261719-46.80175781 10.05249023-81.73828125 10.05249023-81.73828124s44.65942383 39.88037109 9.14611816 130.84716796C307.24230957 808.96044922 301.0625 795.44726563 300.65051269 810.6907959c-0.32958984 15.16113281-27.68554688 39.96276856-17.38586425-6.17980957 10.38208008-46.22497559 34.35974122-88.90686036 40.2923584-135.70861817z" fill="#F7952E" p-id="1172"></path><path d="M654.21801758 188.75476074s-13.59558106 14.17236328-13.26599122 4.8614502c0.41198731-12.19482422-22.32971192-11.37084961-35.43090819-15.65551758-12.52441406-4.11987305-25.54321289-3.29589844-39.55078125-7.41577148-18.29223633-5.35583497-19.6105957-8.23974609-33.78295899-14.00756836-7.16857911-2.88391114-16.14990234 3.04870606-24.71923828 0.82397461-12.44201661-3.29589844-23.56567383-14.17236328-23.56567383-14.17236329-4.36706543-1.15356445-8.89892578 1.40075684-10.05249023 5.85021974L297.18981933 807.80688477c-1.15356445 4.36706543 1.40075684 8.89892578 5.85021973 10.05249023 0 0 5.2734375-2.71911622 11.20605469 0.90637207 6.26220703 3.87268067 12.11242676-1.31835938 16.8914795 3.29589844 6.09741211 5.93261719 14.00756836 7.00378418 22.24731445 9.0637207 4.69665528 1.15356445 7.41577148 0.32958984 12.35961914 1.64794922 8.89892578 2.30712891 18.12744141 6.92138672 27.19116211 9.0637207 7.99255372 1.89514161 13.76037598-2.05993653 21.42333984 1e-8 5.2734375 1.40075684 9.97009278 8.48693848 14.83154297 9.80529784 4.94384766 1.31835938 8.73413086-5.19104004 13.18359375-4.03747559 4.8614502 1.31835938 10.21728516 10.29968262 14.08996582 11.28845216 10.46447754 2.80151367 16.8914795 4.53186036 16.89147949 4.53186035 4.36706543 1.15356445 8.89892578-1.40075684 10.05249024-5.85021973L660.06823731 198.88964844c1.15356445-4.44946289-1.4831543-8.89892578-5.85021973-10.1348877z" fill="#FFB261" p-id="1173"></path><path d="M660.06823731 198.88964844s-57.51342773 179.46166992-103.1616211 349.77722168c-42.51708984 158.69750977-73.4161377 309.07287598-73.41613769 309.07287597-1.15356445 4.36706543-5.68542481 7.00378418-10.05249024 5.85021974 0 0 2.38952637-12.60681153-0.49438476-13.34838869-2.63671875-0.74157715-10.46447754 10.46447754-15.07873536 9.22851564-1.071167-0.32958984-2.22473145-0.57678223-3.46069336-0.90637208-3.54309083-0.90637207-4.44946289-15.4083252-8.65173339-16.47949218-4.44946289-1.23596192-12.27722168 10.87646484-17.38586427 9.55810546-5.10864258-1.40075684 84.70458984-338.40637207 79.18395997-339.88952637-4.77905273-1.31835938-104.89196778 332.96813965-109.83581543 331.64978028-3.70788575-0.98876953 5.60302734-29.99267578 1.8951416-30.98144531-3.87268067-0.98876953-20.76416016 25.9552002-24.55444336 24.8840332-1.81274414-0.49438477-2.47192383-4.69665528-4.28466797-5.19104004-1.40075684-0.41198731 7.08618164-24.71923828 4.94384766-23.07128906-1.97753906 1.56555176-12.93640137 24.8840332-14.25476075 24.55444335-2.30712891-0.57678223 9.0637207-33.86535645 6.83898927-34.44213866-2.30712891-0.65917969-18.20983887 31.39343262-20.43457032 30.81665039-2.14233398-0.57678223 7.66296387-23.64807129 5.60302735-24.22485351-1.31835938-0.32958984-14.58435059 21.83532715-15.8203125 21.5057373-3.13110352-0.82397461 5.43823242-24.06005859 2.63671875-24.80163574-4.94384766-1.31835938-15.57312012 19.11621094-19.77539063 18.95141601-4.36706543-0.16479492 54.62951661-189.76135254 52.734375-187.04223633-3.62548828 5.35583497-70.12023926 183.58154297-70.12023926 183.58154298-4.36706543-1.15356445-7.00378418-5.68542481-5.85021972-10.05249025 0 0 57.76062012-163.22937012 103.16162109-332.47375488 42.84667969-159.85107422 73.4161377-326.37634278 73.41613769-326.37634277 1.15356445-4.36706543 5.68542481-7.00378418 10.05249024-5.85021973 0 0 5.35583497 1.40075684 14.08996582 3.79028321 3.87268067 1.071167-34.35974122 154.08325195-29.25109864 155.40161133 5.52062989 1.4831543 54.46472168-148.64501953 60.9741211-146.91467286 20.10498047 5.35583497 43.91784668 11.78283692 65.34118653 17.46826173 3.3782959 0.90637207-34.85412598 142.54760742-31.55822755 143.45397948 2.80151367 0.74157715 47.0489502-139.25170898 49.68566895-138.59252929 8.32214356 2.22473145 15.90270997 4.28466797 22.16491699 5.93261718 4.61425781 1.23596192-105.88073731 382.24182129-101.59606933 401.19323731 1.071167 4.61425781 120.38269043-396.16699219 120.38269043-396.16699219 4.44946289 1.23596192 7.08618164 5.68542481 5.93261718 10.1348877zM462.14953613 846.03930664c3.29589844 0.90637207 33.20617676-95.58105469 47.70812989-146.99707031C524.35961914 647.54382325 533.42333984 605.10913086 530.12744141 604.20275879c-3.29589844-0.90637207-17.71545411 40.04516602-32.21740723 91.46118164-14.50195313 51.49841309-39.05639648 149.46899414-35.76049805 150.37536621zM556.24743653 167.24902344c-3.29589844-0.90637207-38.3972168 83.55102539-52.89916992 135.13183594-14.50195313 51.49841309-121.94824219 377.21557617-112.06054689 439.92004394 0.49438477 3.3782959 130.10559083-428.54919434 144.60754395-480.04760742 14.50195313-51.58081055 23.64807129-94.09790039 20.35217286-95.00427246z m-5.60302735 292.67578125c14.58435059-51.49841309 23.64807129-94.01550293 20.35217285-95.00427247-3.29589844-0.90637207-17.79785156 40.12756348-32.29980469 91.62597657-14.58435059 51.49841309-72.50976563 276.52587891-69.21386718 277.43225098 3.3782959 0.98876953 66.6595459-222.555542 81.16149902-274.05395508z" fill="#FDA446" p-id="1174"></path><path d="M533.58813477 458.77124023c-9.0637207 14.99633789-84.04541016 239.69421387-97.80578614 249.74670411-8.81652833 6.42700195 40.45715333-133.73107911 51.9104004-191.16210938 7.91015625-39.63317872-41.69311523 15.73791504-42.02270508 16.47949219 22.98889161-55.20629883 20.6817627-91.29638672 47.8729248-111.89575196 27.19116211-20.59936523-4.20227051-28.92150879 16.39709473-47.04895019s42.59948731 52.56958008 23.64807129 83.88061523z m-41.7755127-121.04187012c-30.48706055 36.25488281-88.82446289 85.446167-53.55834961 36.25488282 1.89514161-2.63671875 11.53564453-32.54699708 23.07128906-54.79431152s21.01135254-47.37854004 29.66308594-47.37854005c4.03747559 0 21.09375-31.06384278 23.89526367-28.83911133 5.52062989 4.44946289 7.41577148 58.58459473-23.07128906 94.75708009z m-84.86938476 295.80688478c-18.29223633 43.50585938-18.78662109 92.44995117-32.95898438 137.60375975s-25.37841797 10.05249023-18.1274414-3.29589842-4.77905273-4.77905273 9.88769531-101.34887696 73.33374023-108.76464844 73.33374024-108.76464843-13.84277344 32.29980469-32.13500977 75.80566406z" fill="#F7952E" p-id="1175"></path><path d="M815.71704102 190.40270996s-13.59558106 14.17236328-13.26599122 4.8614502c0.41198731-12.19482422-22.32971192-11.37084961-35.43090819-15.65551758-12.52441406-4.11987305-25.54321289-3.29589844-39.55078125-7.41577149-18.29223633-5.35583497-19.6105957-8.23974609-33.78295899-14.00756836-7.16857911-2.88391114-16.14990234 3.04870606-24.71923828 0.82397461-12.44201661-3.29589844-23.56567383-14.17236328-23.56567383-14.17236328-4.36706543-1.15356445-8.89892578 1.40075684-10.05249023 5.85021973L458.68884277 809.45483398c-1.15356445 4.36706543 1.40075684 8.89892578 5.85021973 10.05249024 0 0 5.2734375-2.71911622 11.20605469 0.90637207 6.26220703 3.87268067 12.11242676-1.31835938 16.89147948 3.29589844 6.09741211 5.93261719 14.00756836 7.00378418 22.24731446 9.0637207 4.69665528 1.15356445 7.41577148 0.32958984 12.35961914 1.64794922 8.89892578 2.30712891 18.12744141 6.92138672 27.19116211 9.0637207 7.99255372 1.89514161 13.76037598-2.05993653 21.42333984 1e-8 5.2734375 1.40075684 9.97009278 8.48693848 14.83154297 9.80529784 4.94384766 1.31835938 8.73413086-5.19104004 13.18359375-4.03747559 4.8614502 1.31835938 10.21728516 10.29968262 14.08996583 11.28845216 10.46447754 2.80151367 16.8914795 4.53186036 16.89147948 4.53186035 4.36706543 1.15356445 8.89892578-1.40075684 10.05249024-5.85021973L821.56726075 200.53759766c1.15356445-4.44946289-1.4831543-8.89892578-5.85021973-10.1348877z" fill="#FFB261" p-id="1176"></path><path d="M821.56726075 200.53759766s-57.51342773 179.46166992-103.16162111 349.77722168c-42.51708984 158.69750977-73.4161377 309.07287598-73.41613769 309.07287597-1.15356445 4.36706543-5.68542481 7.00378418-10.05249023 5.85021973 0 0 2.38952637-12.60681153-0.49438477-13.34838868-2.63671875-0.74157715-10.46447754 10.46447754-15.07873535 9.22851564-1.071167-0.32958984-2.22473145-0.57678223-3.46069336-0.90637208-3.54309083-0.90637207-4.44946289-15.4083252-8.6517334-16.47949219-4.44946289-1.23596192-12.27722168 10.87646484-17.38586426 9.55810547-5.10864258-1.40075684 84.70458984-338.40637207 79.18395997-339.88952637-4.77905273-1.31835938-104.89196778 332.96813965-109.83581544 331.64978028-3.70788575-0.98876953 5.60302734-29.99267578 1.89514161-30.98144531-3.87268067-0.98876953-20.76416016 25.9552002-24.55444336 24.8840332-1.81274414-0.49438477-2.47192383-4.69665528-4.28466797-5.19104004-1.40075684-0.41198731 7.08618164-24.71923828 4.94384766-23.07128906-1.97753906 1.56555176-12.93640137 24.8840332-14.25476075 24.55444335-2.30712891-0.57678223 9.0637207-33.86535645 6.83898926-34.44213866-2.30712891-0.65917969-18.20983887 31.39343262-20.43457031 30.81665039-2.14233398-0.57678223 7.66296387-23.64807129 5.60302734-24.22485351-1.31835938-0.32958984-14.58435059 21.83532715-15.8203125 21.5057373-3.13110352-0.82397461 5.43823242-24.06005859 2.63671875-24.80163574-4.94384766-1.31835938-15.57312012 19.11621094-19.77539062 18.95141601-4.36706543-0.16479492 54.62951661-189.76135254 52.734375-187.04223633-3.62548828 5.35583497-70.12023926 183.58154297-70.12023926 183.58154297-4.36706543-1.15356445-7.00378418-5.68542481-5.85021973-10.05249024 0 0 57.76062012-163.22937012 103.1616211-332.47375488 42.84667969-159.85107422 73.4161377-326.37634278 73.41613769-326.37634278 1.15356445-4.36706543 5.68542481-7.00378418 10.05249023-5.85021972 0 0 5.35583497 1.40075684 14.08996583 3.79028321 3.87268067 1.071167-34.35974122 154.08325195-29.25109864 155.40161132 5.52062989 1.4831543 54.46472168-148.64501953 60.97412109-146.91467285 20.10498047 5.35583497 43.91784668 11.78283692 65.34118653 17.46826173 3.3782959 0.90637207-34.85412598 142.54760742-31.55822754 143.45397948 2.80151367 0.74157715 47.0489502-139.25170898 49.68566895-138.59252929 8.32214356 2.22473145 15.90270997 4.28466797 22.16491699 5.93261718 4.61425781 1.23596192-105.88073731 382.24182129-101.59606934 401.19323731 1.071167 4.61425781 120.38269043-396.16699219 120.38269044-396.16699219 4.44946289 1.23596192 7.08618164 5.68542481 5.93261718 10.1348877zM623.64855958 847.68725586c3.29589844 0.90637207 33.20617676-95.58105469 47.70812987-146.99707031S694.92236328 606.75708008 691.62646484 605.85070801c-3.29589844-0.90637207-17.71545411 40.04516602-32.21740723 91.46118163-14.50195313 51.49841309-39.05639648 149.46899414-35.76049804 150.37536622zM717.74645997 168.89697266c-3.29589844-0.90637207-38.3972168 83.55102539-52.89916994 135.13183593-14.50195313 51.49841309-121.94824219 377.21557617-112.06054686 439.92004395 0.49438477 3.3782959 130.10559083-428.54919434 144.60754394-480.04760742 14.50195313-51.58081055 23.64807129-94.09790039 20.35217286-95.00427246z m-5.60302736 292.67578125c14.58435059-51.49841309 23.64807129-94.01550293 20.35217286-95.00427247-3.29589844-0.90637207-17.79785156 40.12756348-32.29980469 91.62597657-14.58435059 51.49841309-72.50976563 276.52587891-69.21386719 277.43225097 3.3782959 0.98876953 66.6595459-222.555542 81.16149903-274.05395507z" fill="#FDA446" p-id="1177"></path><path d="M751.85900879 347.20507812c-15.57312012 37.40844727-31.640625 45.89538575-39.63317871 41.19873047-2.80151367-1.56555176 14.00756836-49.43847656 25.54321289-71.68579101 5.85021973-11.20605469-12.35961914-80.74951172-7.41577149-89.81323242 4.8614502-8.89892578 16.47949219 54.46472168 20.6817627 54.46472168 4.03747559 0 21.09375-30.98144531 23.81286621-28.83911133 5.60302734 4.44946289-4.77905273 51.00402833-22.98889161 94.67468262zM648.77978516 516.11987305c1.4831543-2.05993653-10.95886231 16.8914795-23.89526368 55.20629882-5.10864258 15.07873536-10.95886231 32.711792-16.89147949 50.18005372 1.23596192 25.29602051 0.08239747 52.89916992-7.82775879 71.76818847-18.29223633 43.50585938-50.50964356 34.27734375-64.68200684 79.43115235-14.17236328 45.15380859-25.37841797 10.05249023-18.12744139-3.29589844s23.64807129 3.87268067 38.31481933-92.6147461c9.31091309-61.30371094 24.8840332-92.12036133 35.0189209-106.37512207 10.62927247-60.56213379 21.75292969-119.97070313 21.58813477-128.54003905-0.82397461-36.58447266 53.64074708-86.92932129 62.45727538-60.89172364 8.81652833 26.03759766-36.00769043 46.80175781-22.74169922 78.27758789 13.34838867 31.47583008 53.97033692-21.09375-3.21350097 56.85424805z" fill="#F7952E" p-id="1178"></path></svg>